<?xml version="1.0" standalone="no"?>
<!DOCTYPE svg PUBLIC "-//W3C//DTD SVG 1.1//EN" "http://www.w3.org/Graphics/SVG/1.1/DTD/svg11.dtd" >
<svg xmlns="http://www.w3.org/2000/svg" xmlns:xlink="http://www.w3.org/1999/xlink" version="1.1">
<metadata>
Created by FontForge 20201107 at Thu Aug 24 14:39:40 2017
 By Jimmy Wärting
Typeface (c) (your company). 2017. All Rights Reserved
</metadata>
<defs>
<font id="Klaxons" horiz-adv-x="1198" >
  <font-face 
    font-family="Klaxons"
    font-weight="400"
    font-stretch="normal"
    units-per-em="2048"
    panose-1="2 0 5 0 0 0 0 0 0 0"
    ascent="1638"
    descent="-410"
    x-height="1356"
    cap-height="1352"
    bbox="-390 -418 2078 1716"
    underline-thickness="150"
    underline-position="-292"
    unicode-range="U+001D-F002"
  />
<missing-glyph horiz-adv-x="1024" 
d="M100 0v1434h824v-1434h-824zM150 50h724v1334h-724v-1334zM325 1148q31 28 58 43q53 30 112 30q92 0 148 -47.5t56 -127.5q0 -49 -23 -98.5t-87 -129.5q-63 -80 -99 -132t-36 -99q0 -38 24 -133h-32q-35 97 -35 148q0 76 81.5 218t81.5 217q0 57 -33 90t-91 33
q-38 0 -69 -17q-26 -15 -56 -40v45zM389 334l57 58q11 10 20 10q10 0 22 -11l56 -60q9 -11 9 -20q0 -11 -10 -22l-56 -62q-14 -14 -21 -14q-11 0 -20 10l-61 71q-7 9 -7 18q0 10 11 22z" />
    <glyph glyph-name=".notdef" horiz-adv-x="1024" 
d="M100 0v1434h824v-1434h-824zM150 50h724v1334h-724v-1334zM325 1148q31 28 58 43q53 30 112 30q92 0 148 -47.5t56 -127.5q0 -49 -23 -98.5t-87 -129.5q-63 -80 -99 -132t-36 -99q0 -38 24 -133h-32q-35 97 -35 148q0 76 81.5 218t81.5 217q0 57 -33 90t-91 33
q-38 0 -69 -17q-26 -15 -56 -40v45zM389 334l57 58q11 10 20 10q10 0 22 -11l56 -60q9 -11 9 -20q0 -11 -10 -22l-56 -62q-14 -14 -21 -14q-11 0 -20 10l-61 71q-7 9 -7 18q0 10 11 22z" />
    <glyph glyph-name=".null" horiz-adv-x="0" 
 />
    <glyph glyph-name=".null" horiz-adv-x="0" 
 />
    <glyph glyph-name="nonmarkingreturn" horiz-adv-x="508" 
 />
    <glyph glyph-name="space" unicode=" " horiz-adv-x="508" 
 />
    <glyph glyph-name="space" unicode="&#xa0;" horiz-adv-x="508" 
 />
    <glyph glyph-name="exclam" unicode="!" horiz-adv-x="356" 
d="M84 82q63 0 92 -84v-8l-32 -60q-30 -20 -52 -20h-12q-5 0 -20 20v20q0 14 44 20l8 28q-8 24 -32 24q-16 0 -32 -48l-8 -4h-20q-5 0 -20 20v12q0 64 84 80zM94 1460h20q20 -10 20 -32v-892q0 -36 -32 -36q-18 0 -32 28v896q0 22 24 36z" />
    <glyph glyph-name="quotedbl" unicode="&#x22;" horiz-adv-x="299" 
d="M36 1520q28 0 28 -28v-272q-10 -20 -32 -20h-4q-17 11 -28 36v248q10 36 36 36zM124 1520h20q7 0 24 -28v-132q-17 -28 -24 -28h-20q-5 0 -20 20v148q0 5 20 20z" />
    <glyph glyph-name="numbersign" unicode="#" horiz-adv-x="1901" 
d="M864 1360h20q20 -12 20 -28q-88 -403 -104 -444q-15 -12 -28 -12h-512q-32 0 -32 32q0 25 32 28h488q10 0 60 252q38 172 56 172zM1396 1360q23 0 28 -32q-84 -333 -96 -392h484q22 0 32 -20v-20q-10 -20 -32 -20h-520q-32 0 -32 32q103 448 116 448zM136 480h508
q31 0 40 -20v-20q-96 -402 -116 -436l-20 -4q-25 0 -28 32q96 378 96 388h-496q-20 10 -20 32q5 28 36 28zM1180 480h516q24 0 32 -28q0 -26 -36 -32h-492q-96 -396 -112 -416l-20 -4q-28 6 -28 28q104 431 120 448z" />
    <glyph glyph-name="dollar" unicode="$" horiz-adv-x="1014" 
d="M480 1564h8q5 0 20 -20v-176q0 -5 -20 -20h-20q-20 10 -20 32v152q0 32 32 32zM464 1308h260q44 0 44 -36q-5 -16 -20 -24h-280q-163 0 -268 -128h-24q-6 0 -16 16v24q116 148 304 148zM472 1208h4q32 0 32 -32v-424q0 -5 -20 -20h-20q-20 10 -20 32v408q0 22 24 36z
M152 1112q32 -10 32 -32q-24 -88 -24 -148q0 -153 124 -212q60 -23 288 -52q209 -66 276 -188q48 -89 48 -172v-32q0 -96 -44 -96q-7 0 -24 20q4 54 4 80v32q0 211 -260 292q-52 12 -284 48q-110 46 -132 100q-56 72 -56 184q0 149 52 176zM468 556h20q5 0 20 -20v-456
q0 -22 -20 -32h-8q-32 0 -32 32v444q0 22 20 32zM832 168h8q5 0 20 -20v-8q0 -46 -120 -132q-100 -60 -200 -60h-352q-24 0 -32 28q0 26 36 32h344q167 0 280 156q7 4 16 4zM484 -80q24 -8 24 -32v-156q-4 -32 -32 -32q-28 12 -28 36v148q5 36 36 36z" />
    <glyph glyph-name="percent" unicode="%" horiz-adv-x="1697" 
d="M1103 1546q13 0 28 -21v-7l-421 -1564q-16 -14 -25 -14q-24 11 -24 28l420 1567zM1480 290q-86 152 -212 152h-48q-54 0 -116 -36q-78 -46 -112 -152q0 -16 20 -28h12l20 4q61 152 184 152h44q168 -48 168 -196v-20q-41 -180 -196 -180h-8q-77 0 -140 60q-51 80 -56 80
h-12q-28 0 -28 -28q71 -172 240 -172q45 0 80 12q180 76 180 232v36q0 32 -20 84zM313 1255v36q0 156 180 232q35 12 80 12q169 0 240 -172q0 -28 -28 -28h-12q-5 0 -56 80q-63 60 -140 60h-8q-155 0 -196 -180v-20q0 -148 168 -196h44q123 0 184 152l20 4h12q20 -12 20 -28
q-34 -106 -112 -152q-62 -36 -116 -36h-48q-126 0 -212 152q-20 52 -20 84z" />
    <glyph glyph-name="ampersand" unicode="&#x26;" horiz-adv-x="1554" 
d="M776 1364q28 -13 28 -36v-544q0 -32 -32 -32q-28 0 -28 44v520q0 35 32 48zM120 712h1308q24 0 32 -28q0 -28 -44 -32h-1276q-31 0 -40 20v20q0 5 20 20zM776 612q25 0 28 -32v-544q0 -23 -28 -36q-32 13 -32 48v528q0 36 32 36z" />
    <glyph glyph-name="quotesingle" unicode="'" horiz-adv-x="200" 
d="M36 1520q28 0 28 -28v-272q-10 -20 -32 -20h-4q-17 11 -28 36v248q10 36 36 36z" />
    <glyph glyph-name="parenleft" unicode="(" horiz-adv-x="499" 
d="M408 1680h20q5 0 20 -20v-16q0 -6 -84 -80q-194 -226 -244 -448q-15 -12 -28 -12q-28 6 -28 28q45 221 252 468q63 62 92 80zM64 1064q22 0 28 -32q-32 -127 -32 -268v-48q0 -488 384 -868q4 -7 4 -16q0 -18 -28 -32h-4q-199 188 -244 296q-172 295 -172 612v72
q12 284 56 284h8z" />
    <glyph glyph-name="parenright" unicode=")" horiz-adv-x="499" 
d="M40 -200h-20q-5 0 -20 20v16q0 6 84 80q194 226 244 448q15 12 28 12q28 -6 28 -28q-45 -221 -252 -468q-63 -61 -92 -80zM384 416q-22 0 -28 32q32 127 32 268v48q0 488 -384 868q-4 7 -4 16q0 18 28 32h4q199 -188 244 -296q172 -295 172 -612v-72q-12 -284 -56 -284
h-8z" />
    <glyph glyph-name="asterisk" unicode="*" horiz-adv-x="594" 
d="M264 1524q28 0 28 -56v-92q0 -56 -36 -56q-28 0 -28 56v92q0 56 36 56zM100 1456q20 0 100 -96v-20q-10 -20 -32 -20q-100 81 -100 108q0 25 32 28zM412 1452h12q28 0 28 -28q0 -26 -96 -104h-16q-5 0 -20 20v8q0 23 92 104zM32 1292h456q22 0 32 -20v-20
q-10 -20 -32 -20h-456q-32 0 -32 32q0 25 32 28zM260 1204h8q24 -9 24 -56v-100q0 -40 -32 -48q-32 7 -32 48v100q0 56 32 56zM352 1204q20 0 100 -96v-20q-7 -14 -24 -20q-27 0 -108 100v8q0 23 32 28zM160 1200h12q28 0 28 -28q0 -26 -96 -104h-16q-5 0 -20 20v8
q0 23 92 104z" />
    <glyph glyph-name="plus" unicode="+" horiz-adv-x="1402" 
d="M672 1360h20q20 -10 20 -32v-1292q-6 -36 -32 -36q-18 7 -28 24v1304q0 22 20 32zM36 708h544q22 0 32 -20v-8q0 -32 -36 -32h-536q-24 0 -40 32q13 28 36 28zM784 708h544q32 0 32 -32v-4q-14 -24 -36 -24h-536q-36 0 -36 32q0 25 32 28z" />
    <glyph glyph-name="comma" unicode="," horiz-adv-x="233" 
d="M72 94h8q56 0 88 -80v-12q-74 -149 -120 -192h-16q-5 0 -20 20v12q0 7 92 168q-5 17 -20 24h-8q-13 0 -40 -24h-8q-28 5 -28 36q27 48 72 48z" />
    <glyph glyph-name="hyphen" unicode="-" horiz-adv-x="1265" 
d="M108 710h1040q28 -14 28 -36q-12 -28 -36 -28h-1028q-23 0 -36 28v8q9 15 32 28z" />
    <glyph glyph-name="hyphen" unicode="&#xad;" horiz-adv-x="1265" 
d="M108 710h1040q28 -14 28 -36q-12 -28 -36 -28h-1028q-23 0 -36 28v8q9 15 32 28z" />
    <glyph glyph-name="period" unicode="." horiz-adv-x="356" 
d="M84 82q63 0 92 -84v-8l-32 -60q-30 -20 -52 -20h-12q-5 0 -20 20v20q0 14 44 20l8 28q-8 24 -32 24q-16 0 -32 -48l-8 -4h-20q-5 0 -20 20v12q0 64 84 80z" />
    <glyph glyph-name="slash" unicode="/" horiz-adv-x="569" 
d="M500 1616q15 0 32 -24v-8l-476 -1768q-18 -16 -28 -16q-28 13 -28 32l476 1772z" />
    <glyph glyph-name="zero" unicode="0" horiz-adv-x="1402" 
d="M261 152q-261 227 -261 541q0 275 222 502q210 165 342 165h4q17 -11 17 -17v-13l-4 -21q-92 -21 -184 -63q-337 -206 -337 -558q8 -126 34 -185q84 -231 256 -338q113 -75 295 -102v5l21 -5h26q281 0 487 216q154 200 154 380v63q0 199 -167 397q-142 130 -265 169
q-94 12 -94 46v13q2 9 22 17q35 0 141 -38q143 -60 260 -186q167 -212 167 -443q0 -104 -30 -207q-91 -271 -325 -401q-188 -89 -303 -89q0 4 -4 4l-9 -4l-8 4q0 -4 -5 -4h-17l-8 4q0 -4 -4 -4l-9 4v-4q-201 0 -414 152z" />
    <glyph glyph-name="one" unicode="1" horiz-adv-x="342" 
d="M36 1364h180q40 -17 40 -44v-1292q-13 -28 -36 -28t-28 44v1256h-172q-20 10 -20 32v4q11 17 36 28z" />
    <glyph glyph-name="two" unicode="2" horiz-adv-x="898" 
d="M36 1368h424q15 -8 100 -24q172 -85 172 -140v-12q0 -6 -16 -16h-12q-17 0 -68 56q-91 72 -212 72h-388q-32 0 -32 32q0 17 32 32zM748 1168q48 -18 48 -168q0 -235 -216 -300q-38 -11 -248 -24q-108 -28 -168 -80q-104 -87 -104 -344v-228q-10 -20 -32 -20q-23 0 -28 44
v180q0 293 96 380q99 140 428 140q94 20 140 60q72 72 72 192q-4 74 -20 140q14 28 32 28zM136 64h636q36 -6 36 -32q0 -32 -60 -32h-588q-56 0 -56 32v12q10 20 32 20z" />
    <glyph glyph-name="three" unicode="3" horiz-adv-x="898" 
d="M32 1368h420q7 -8 64 -16q284 -97 284 -336v-20q0 -205 -208 -284q-44 -20 -140 -28q-24 0 -28 32v8q0 21 112 32q204 54 204 248v4q0 218 -256 288q-30 8 -56 8h-408q-5 0 -20 20v8q0 25 32 36zM648 712q110 -53 172 -224q16 -66 16 -116v-24q0 -239 -256 -324
q-80 -24 -188 -24h-344q-48 0 -48 36q12 28 36 28h416q194 0 292 152q32 58 32 132v24q0 172 -156 296q-4 7 -4 16q0 25 32 28z" />
    <glyph glyph-name="four" unicode="4" 
d="M548 1356h8q28 -15 28 -32q0 -13 -416 -532q-58 -70 -68 -88h972q32 0 32 -32q-12 -28 -36 -28h-1028q-22 0 -40 32q505 642 548 680zM672 604h20q20 -9 20 -40v-524q0 -31 -20 -40h-20q-5 0 -20 20v564q0 5 20 20z" />
    <glyph glyph-name="five" unicode="5" horiz-adv-x="898" 
d="M136 1368h636q36 -15 36 -40q-5 -16 -20 -24h-668q-20 10 -20 32q4 17 36 32zM32 1360h8q5 0 20 -20v-496h284q382 0 456 -328q8 -43 12 -96q0 -187 -140 -320q-134 -100 -344 -100h-268q-47 0 -56 24v8q0 32 40 32h340q208 0 320 168q44 83 44 180v12q0 299 -316 356
q-52 4 -84 4h-324q-24 13 -24 44v496q0 36 32 36z" />
    <glyph glyph-name="six" unicode="6" horiz-adv-x="1014" 
d="M568 1364h4q32 -16 32 -24v-12q0 -32 -72 -32q-158 0 -308 -180q-114 -189 -136 -364q-20 -79 -28 -248l-20 -16h-16q-24 14 -24 36q0 258 124 540q100 185 256 256q66 28 188 44zM424 840q324 0 408 -336l12 -84q0 -134 -100 -284q-123 -136 -304 -136h-36
q-315 0 -396 352q-8 50 -8 68q12 28 36 28q29 0 36 -112q39 -145 124 -208q89 -68 212 -68h28q233 0 320 224q24 69 24 136v4q0 186 -156 304q-49 37 -216 56q-16 7 -16 28q14 28 32 28z" />
    <glyph glyph-name="seven" unicode="7" 
d="M36 1364h1032q32 -16 32 -40q-8 -24 -32 -24h-1032q-22 0 -36 24v8q9 21 36 32zM1072 1260q25 0 28 -32q-30 -61 -768 -1188q-16 -40 -44 -40q-16 6 -24 20v12q0 17 312 488q442 690 480 736q7 4 16 4z" />
    <glyph glyph-name="eight" unicode="8" horiz-adv-x="799" 
d="M356 1360q21 0 32 -32q0 -36 -96 -36q-228 -63 -228 -272v-32q0 -204 212 -268q165 -17 236 -44q122 -58 168 -160q24 -52 36 -164q0 -73 -48 -188q-120 -164 -308 -164q-24 0 -32 28q0 35 100 40q224 58 224 288q0 196 -168 264q-37 23 -204 36q-147 41 -216 132
q-64 106 -64 216q0 269 276 344zM444 1344q78 0 200 -116q50 -60 72 -212v-16q-15 -127 -48 -184q-65 -94 -124 -116q-15 0 -32 24v8q0 22 68 64q72 85 72 208q0 202 -180 272q-64 10 -64 44q7 24 36 24zM172 656q16 0 28 -20v-20q-132 -105 -132 -204q-4 -14 -4 -44v-28
q0 -175 156 -248q88 -29 88 -44v-8q0 -28 -28 -28h-8q-78 0 -200 116q-72 103 -72 228q0 202 168 300h4z" />
    <glyph glyph-name="nine" unicode="9" horiz-adv-x="936" 
d="M424 1364q330 0 412 -336q12 -62 12 -92q-18 -22 -32 -24q-32 0 -44 124q-34 128 -112 192q-97 76 -236 76q-231 0 -324 -204q-32 -85 -32 -152v-12q0 -181 152 -300q98 -56 220 -56q16 -20 16 -24q-3 -32 -32 -32h-20q-280 0 -380 296l-24 124l28 124q39 142 128 204
q104 92 268 92zM804 872h12q32 0 32 -36q0 -227 -108 -508q-168 -328 -464 -328q-23 0 -36 32q0 36 108 36q123 23 224 116q126 124 192 432q16 104 24 240z" />
    <glyph glyph-name="colon" unicode=":" horiz-adv-x="557" 
d="M84 72q63 0 92 -84v-8l-32 -60q-30 -20 -52 -20h-12q-5 0 -20 20v20q0 14 44 20l8 28q-8 24 -32 24q-16 0 -32 -48l-8 -4h-20q-5 0 -20 20v12q0 64 84 80zM84 776q63 0 92 -84v-8l-32 -60q-30 -20 -52 -20h-12q-5 0 -20 20v20q0 14 44 20l8 28q-8 24 -32 24
q-16 0 -32 -48l-8 -4h-20q-5 0 -20 20v12q0 64 84 80z" />
    <glyph glyph-name="semicolon" unicode=";" horiz-adv-x="557" 
d="M84 776q63 0 92 -84v-8l-32 -60q-30 -20 -52 -20h-12q-5 0 -20 20v20q0 14 44 20l8 28q-8 24 -32 24q-16 0 -32 -48l-8 -4h-20q-5 0 -20 20v12q0 64 84 80zM72 104h8q56 0 88 -80v-12q-74 -149 -120 -192h-16q-5 0 -20 20v12q0 7 92 168q-5 17 -20 24h-8q-13 0 -40 -24
h-8q-28 5 -28 36q27 48 72 48z" />
    <glyph glyph-name="semicolon" unicode="&#x37e;" horiz-adv-x="557" 
d="M84 776q63 0 92 -84v-8l-32 -60q-30 -20 -52 -20h-12q-5 0 -20 20v20q0 14 44 20l8 28q-8 24 -32 24q-16 0 -32 -48l-8 -4h-20q-5 0 -20 20v12q0 64 84 80zM72 104h8q56 0 88 -80v-12q-74 -149 -120 -192h-16q-5 0 -20 20v12q0 7 92 168q-5 17 -20 24h-8q-13 0 -40 -24
h-8q-28 5 -28 36q27 48 72 48z" />
    <glyph glyph-name="less" unicode="&#x3c;" horiz-adv-x="898" 
d="M788 1360q20 -10 20 -32q0 -11 -668 -672h-12q-28 13 -28 32q0 17 392 400q263 272 280 272h16zM200 640q17 0 372 -364q236 -225 236 -248q-7 -18 -24 -28h-4q-22 0 -160 148q-275 270 -452 452v20q10 20 32 20z" />
    <glyph glyph-name="equal" unicode="=" 
d="M76 952h1032q32 -2 32 -32q-12 -28 -36 -28h-1028q-23 0 -36 28v8q14 24 36 24zM80 564h1016q44 0 44 -36q-9 -28 -48 -28h-1004q-32 0 -48 28v8q14 28 40 28z" />
    <glyph glyph-name="greater" unicode="&#x3e;" horiz-adv-x="898" 
d="M120 1360h12q22 0 148 -136q524 -517 524 -528v-20q-10 -20 -32 -20q-11 0 -672 668v12q6 17 20 24zM712 640q25 0 28 -32q0 -17 -344 -352q-247 -256 -264 -256h-4q-28 6 -28 28t132 144q461 468 472 468h8z" />
    <glyph glyph-name="question" unicode="?" horiz-adv-x="748" 
d="M36 1422h340q174 -26 224 -76q81 -45 124 -164q13 -74 20 -88v-64q-7 -9 -20 -92q-36 -100 -116 -156q-114 -76 -220 -76q-32 6 -32 32q0 36 92 36q141 39 188 120q44 67 44 176q0 191 -180 264q-71 24 -160 24h-312q-28 0 -28 28q0 24 36 36zM384 666h12q20 -9 20 -40
v-140q0 -36 -32 -36q-16 0 -28 20v168q0 28 28 28zM384 82q63 0 92 -84v-8l-32 -60q-30 -20 -52 -20h-12q-5 0 -20 20v20q0 14 44 20l8 28q-8 24 -32 24q-16 0 -32 -48l-8 -4h-20q-5 0 -20 20v12q0 64 84 80z" />
    <glyph glyph-name="at" unicode="@" horiz-adv-x="2019" 
d="M32 1472h1932q24 0 40 -24v-20q-10 -20 -32 -20h-1948q-24 16 -24 32q0 12 32 32zM880 1372h500q36 -5 36 -36v-1300q-16 -24 -32 -24q-28 12 -28 36v1264h-484q-32 0 -32 32q0 28 40 28zM1492 1372h408q36 -6 36 -32q-8 -28 -32 -28h-416q-32 0 -32 32q12 28 36 28z
M612 1368q25 0 76 -156q207 -501 208 -524q-12 -28 -36 -28h-488q-11 -11 -172 -416q-85 -228 -100 -228q-7 -4 -16 -4q-24 8 -24 32q252 654 272 672l20 4h472q-200 494 -244 616q0 32 32 32zM552 1256q32 0 32 -36q-136 -355 -168 -432l-12 -8h-20q-20 10 -20 32
q145 390 176 440q4 0 12 4zM900 620h8q19 0 100 -216q129 -297 148 -368q-8 -24 -32 -24h-4q-22 0 -76 156q-172 399 -172 424q0 28 28 28zM36 -16h1928q31 0 40 -20v-12q0 -32 -44 -32h-1920q-40 6 -40 36q12 28 36 28z" />
    <glyph glyph-name="A" unicode="A" 
d="M560 1356q22 0 80 -168q132 -320 200 -504v-4q0 -32 -40 -32h-488q-248 -630 -260 -640q-13 -8 -20 -8q-12 0 -32 32q52 119 268 664q15 12 28 12h472l-244 620q12 28 36 28zM504 1244q17 -5 24 -20v-16q-148 -400 -168 -432l-12 -8h-20q-6 0 -16 16v12q0 23 168 440
q16 8 24 8zM836 608h8q34 0 68 -116q172 -403 188 -456v-16q0 -5 -20 -20h-4q-36 0 -76 132q-184 428 -184 452q6 17 20 24z" />
    <glyph glyph-name="B" unicode="B" horiz-adv-x="922" 
d="M124 1364h272q11 -7 96 -20q248 -89 248 -316v-48q0 -237 -264 -320q-65 -12 -116 -12h-84q-31 0 -44 24v4q0 32 32 32h108q215 0 296 184q12 52 16 112q0 192 -168 268q-76 28 -148 28h-244q-32 0 -32 32q0 12 32 32zM32 1356h8q5 0 20 -20v-1304q-2 -32 -32 -32
q-28 0 -28 56v1244q0 56 32 56zM652 676q68 0 152 -128q36 -87 36 -184v-20q0 -249 -252 -328q-48 -16 -108 -16h-348q-24 0 -32 28q0 28 44 32h352q284 38 284 276v40q0 183 -136 244q-17 0 -24 28q13 28 32 28z" />
    <glyph glyph-name="C" unicode="C" horiz-adv-x="1131" 
d="M628 1304h48q148 0 340 -112l8 -20q0 -24 -32 -28q-170 100 -332 100h-16q-324 0 -516 -312q-72 -143 -72 -284q0 -317 296 -512q141 -80 276 -80h40q156 0 324 100h4q5 0 20 -20v-8q0 -49 -224 -112q-55 -16 -136 -16h-8q-367 0 -576 352q-72 148 -72 292v12
q0 348 332 564q177 84 296 84z" />
    <glyph glyph-name="D" unicode="D" horiz-adv-x="936" 
d="M136 1364h52q12 -7 140 -24q291 -85 404 -256q112 -172 112 -376v-56q0 -411 -384 -588q-161 -64 -308 -64h-12q-36 6 -36 32q7 18 24 28h20q303 0 508 216q128 162 128 384v40q0 435 -432 568q-99 32 -220 32q-25 0 -28 32v4q9 15 32 28zM24 1356h24q16 -6 16 -28v-1296
q0 -28 -28 -28q-24 0 -36 36v1284q16 32 24 32z" />
    <glyph glyph-name="E" unicode="E" horiz-adv-x="998" 
d="M32 1368h864q32 -14 32 -36q0 -25 -32 -28h-864q-32 0 -32 32q0 17 32 32zM44 716h840q31 0 44 -24v-4q0 -36 -56 -36h-816q-56 0 -56 36v4q13 24 44 24zM36 64h856q36 0 36 -32t-48 -32h-832q-48 0 -48 36q5 28 36 28z" />
    <glyph glyph-name="F" unicode="F" horiz-adv-x="1150" 
d="M136 1364h936q32 -16 32 -40q-8 -24 -32 -24h-936q-32 0 -32 32v4q9 15 32 28zM24 1356h24q16 -6 16 -28v-1308q-10 -20 -32 -20q-17 4 -32 36v1288q16 32 24 32zM136 708h676q32 0 32 -32q-5 -28 -36 -28h-668q-22 0 -36 24v4q0 32 32 32z" />
    <glyph glyph-name="G" unicode="G" horiz-adv-x="1402" 
d="M644 720h540q20 -10 20 -32q-5 -16 -20 -24h-540q-20 10 -20 32q6 17 20 24zM632 1308h48q148 0 340 -112l8 -20q0 -24 -32 -28q-170 100 -332 100h-16q-318 0 -516 -308q-72 -152 -72 -288q0 -317 296 -512q141 -80 276 -80h36q281 0 472 252q108 169 108 336
q-4 16 -4 32v12q0 6 16 16h12q28 0 28 -28v-40q0 -330 -308 -544q-157 -96 -348 -96h-8q-298 0 -512 264q-124 186 -124 356v64q0 188 140 376q134 165 364 228q47 12 128 20z" />
    <glyph glyph-name="H" unicode="H" horiz-adv-x="927" 
d="M24 1356h24q16 -6 16 -28v-560q-10 -20 -32 -20q-17 4 -32 36v540q16 32 24 32zM812 1356h8q5 0 20 -20v-656q0 -32 -36 -32h-740v-628q-10 -20 -32 -20q-17 4 -32 36v636q15 36 40 36h740v608q0 40 32 40zM800 608h12q28 0 28 -28v-556q0 -5 -20 -20h-20q-20 9 -20 40
v524q0 31 20 40z" />
    <glyph glyph-name="I" unicode="I" horiz-adv-x="143" 
d="M24 1352h20q20 -10 20 -32v-1288q0 -22 -20 -32h-20q-7 0 -24 28v1288q0 22 24 36z" />
    <glyph glyph-name="J" unicode="J" horiz-adv-x="799" 
d="M676 1360h12q28 0 28 -28v-676q0 -406 -376 -584q-98 -49 -308 -72q-19 0 -32 32q0 36 108 36q62 0 248 76q300 163 300 528v648q0 31 20 40z" />
    <glyph glyph-name="K" unicode="K" horiz-adv-x="922" 
d="M20 1356h12q28 0 28 -28v-620h488q37 0 76 -136q8 -5 216 -540q0 -32 -32 -32q-27 0 -84 172q-8 9 -192 476h-496q-36 0 -36 44v624q0 31 20 40zM812 1356q25 0 28 -32q-236 -515 -272 -572l-8 -4h-8q-28 0 -28 28v4q40 106 268 572zM20 608h12q28 0 28 -28v-548
q0 -28 -28 -28q-32 0 -32 36v528q0 31 20 40z" />
    <glyph glyph-name="L" unicode="L" horiz-adv-x="927" 
d="M24 1360h24q16 -6 16 -28v-1272h748q32 0 32 -32q-12 -28 -36 -28h-764q-29 0 -44 40v1288q16 32 24 32z" />
    <glyph glyph-name="M" unicode="M" horiz-adv-x="1450" 
d="M20 1356h24l636 -632l636 632h12q28 0 28 -28q0 -23 -104 -116q-553 -560 -564 -560l-8 -4q-23 1 -264 256q-416 407 -416 424q8 25 20 28zM36 1260q18 -7 28 -24v-1204q0 -32 -32 -32q-25 0 -28 32v1204q16 24 32 24zM1332 1260q12 0 32 -32v-1188q-5 -40 -36 -40
q-25 0 -28 32v1196q2 32 32 32z" />
    <glyph glyph-name="N" unicode="N" 
d="M36 1360q30 -12 132 -148l932 -1168q4 -7 4 -16q-13 -28 -32 -28q-23 5 -120 136l-888 1108v-1224q-10 -20 -32 -20q-17 4 -32 36v1288q11 28 32 36h4zM1080 1356q24 -8 24 -32v-1140q0 -5 -20 -20h-8q-32 0 -32 40v1116q5 36 36 36z" />
    <glyph glyph-name="O" unicode="O" horiz-adv-x="1402" 
d="M675 1364v-4l9 4q4 0 4 -4l8 4h17q5 0 5 -4l8 4l9 -4q4 0 4 4q115 0 303 -89q234 -130 325 -401q30 -103 30 -207q0 -231 -167 -443q-117 -126 -260 -186q-106 -38 -141 -38q-20 8 -22 17v13q0 34 94 46q123 39 265 169q167 198 167 397v63q0 180 -154 380
q-206 216 -487 216h-26l-21 -5v5q-182 -27 -295 -102q-172 -107 -256 -338q-26 -59 -34 -185q0 -352 337 -558q92 -42 184 -63l4 -21v-13q0 -6 -17 -17h-4q-132 0 -342 165q-222 227 -222 502q0 314 261 541q213 152 414 152z" />
    <glyph glyph-name="P" unicode="P" horiz-adv-x="889" 
d="M136 1364h304q9 -7 92 -20q149 -50 212 -164q40 -111 40 -168v-16q0 -101 -72 -216q-121 -132 -296 -132h-276q-36 6 -36 32q7 18 24 28h280q241 0 304 216q8 40 8 80q0 213 -196 280q-70 16 -120 16h-268q-32 0 -32 32v4q9 15 32 28zM36 1360q18 0 32 -32
q-4 -274 -4 -408v-900q-10 -20 -32 -20q-17 4 -32 36v1288q11 28 32 36h4z" />
    <glyph glyph-name="Q" unicode="Q" horiz-adv-x="1383" 
d="M400 551h368q39 0 132 -108q495 -486 496 -504v-4q-12 -28 -36 -28q-19 3 -400 392l-196 192h-380q-5 0 -20 20v8q0 32 36 32zM628 1304h44q234 0 440 -188q150 -167 172 -300q16 -51 24 -140v-48q0 -148 -112 -340l-20 -8q-24 0 -28 32q100 170 100 332v16
q0 290 -260 484q-162 100 -328 100h-16q-312 0 -508 -296q-76 -148 -76 -284v-36q0 -204 164 -392q187 -180 404 -180h40q156 0 324 100h4q5 0 20 -20v-8q0 -49 -224 -112q-55 -16 -136 -16h-8q-367 0 -576 352q-72 148 -72 292v12q0 354 344 572q168 76 284 76z" />
    <glyph glyph-name="R" unicode="R" horiz-adv-x="898" 
d="M132 1364h280q364 -46 364 -360q0 -189 -152 -288h-16q-5 0 -20 20v8q0 17 64 72q64 85 64 188q0 218 -208 280q-53 16 -132 16h-244q-22 0 -32 20v8q0 25 32 36zM20 1356h20q5 0 20 -20v-628h456q34 0 64 -108q228 -558 228 -572q-12 -28 -36 -28t-108 236
q-164 399 -164 412h-464q-36 5 -36 36v640q0 22 20 32zM20 608h20q5 0 20 -20v-552q0 -22 -20 -32h-20q-20 10 -20 32v540q0 22 20 32z" />
    <glyph glyph-name="S" unicode="S" horiz-adv-x="898" 
d="M332 1368h300q36 -12 36 -36v-8q0 -5 -20 -20h-284q-154 0 -264 -128h-12q-28 0 -28 28q10 55 144 128q56 20 124 32q0 4 4 4zM56 1168q28 -8 28 -32q-20 -79 -20 -132v-24q0 -172 164 -220q314 -35 380 -92q48 -19 128 -108q42 -56 60 -176q4 0 4 -4v-64q-7 -9 -16 -64
q-18 -16 -28 -16q-18 7 -28 24q8 69 8 88q0 280 -368 332q-165 16 -236 52q-132 96 -132 260q12 176 56 176zM732 224q28 0 28 -28v-12q-116 -184 -368 -184h-276q-47 0 -56 24v8q0 32 40 32h336q171 0 284 160h12z" />
    <glyph glyph-name="T" unicode="T" 
d="M36 1364h512q32 -16 32 -40v-1288q-6 -36 -32 -36q-28 8 -28 32v1268h-484q-22 0 -36 24v8q9 21 36 32zM652 1364h416q28 -17 28 -24v-20q0 -5 -20 -20h-424q-32 0 -32 32q0 17 32 32z" />
    <glyph glyph-name="U" unicode="U" 
d="M24 1356h24q16 -6 16 -28v-804q0 -368 316 -456q60 -8 100 -8h4q24 0 36 -28q-3 -32 -32 -32h-12q-208 0 -340 140q-87 97 -120 248q0 13 -16 104v832q16 32 24 32zM1064 1356h20q5 0 20 -20v-868q0 -347 -360 -452q-70 -16 -120 -16q-22 0 -32 20v8q0 36 96 36
q155 33 244 116q112 118 112 284v852q0 31 20 40z" />
    <glyph glyph-name="V" unicode="V" 
d="M32 1356q32 0 60 -104q484 -1197 484 -1220v-12q-3 -12 -28 -20q-28 0 -72 136q-468 1170 -476 1184v12q10 24 32 24zM1060 1356h20q5 0 20 -20v-4q0 -14 -408 -1064q-49 -136 -68 -136h-16q-20 10 -20 32q433 1130 464 1188z" />
    <glyph glyph-name="W" unicode="W" horiz-adv-x="1711" 
d="M16 1356h24q21 0 68 -284q208 -1011 208 -1048q-4 -15 -28 -24q-33 0 -52 124q-236 1187 -236 1212q8 18 16 20zM796 1356h12q32 0 60 -104q422 -1037 424 -1064q-5 -16 -20 -24h-20q-18 0 -88 196q-4 2 -356 888h-4q-4 -24 -428 -1076q-6 0 -16 -8h-4q-32 0 -32 32
q448 1137 464 1156zM1588 1356h8q20 -12 20 -28q-252 -1278 -264 -1316q-15 -12 -28 -12q-28 14 -28 32l264 1312q15 12 28 12z" />
    <glyph glyph-name="X" unicode="X" 
d="M32 1360q30 -12 132 -148q918 -1146 932 -1168q4 -7 4 -16v-4q-16 -24 -32 -24q-19 0 -188 224q-15 11 -880 1100v8q15 28 32 28zM1060 1356h20q5 0 20 -20v-4q0 -22 -156 -204q-290 -360 -320 -380h-8q-25 0 -28 32q0 18 384 472q41 61 88 104zM476 640h20q12 -3 20 -28
q-23 -43 -304 -400q-145 -192 -176 -212h-8q-18 7 -28 24v12q439 571 476 604z" />
    <glyph glyph-name="Y" unicode="Y" horiz-adv-x="1193" 
d="M32 1360q17 0 144 -160q12 -20 400 -508l4 -24v-636q0 -32 -32 -32q-23 0 -28 44v612q0 19 -168 220l-352 448v8q15 28 32 28zM1060 1356h20q5 0 20 -20v-8q0 -22 -172 -228q-255 -339 -300 -384h-12q-25 0 -28 32q0 14 232 304q196 260 240 304z" />
    <glyph glyph-name="Z" unicode="Z" 
d="M36 1368h1032q36 -21 36 -40q-1027 -1291 -1060 -1320q-7 -4 -16 -4q-18 7 -28 24v12l1008 1264h-972q-22 0 -36 24v8q9 21 36 32zM136 64h928q36 -5 36 -36q-9 -28 -48 -28h-904q-48 0 -48 36v4q14 24 36 24z" />
    <glyph glyph-name="bracketleft" unicode="[" horiz-adv-x="499" 
d="M40 1628h252q23 -13 32 -28v-16q-9 -24 -56 -24h-192l-8 4l-4 -8v-1752h224q36 -6 36 -32q-8 -32 -48 -32h-224q-37 0 -52 40v1804q12 32 40 44z" />
    <glyph glyph-name="backslash" unicode="\" horiz-adv-x="569" 
d="M56 1604l476 -1772q0 -19 -28 -32q-10 0 -28 16l-476 1768v8q17 24 32 24z" />
    <glyph glyph-name="bracketright" unicode="]" horiz-adv-x="509" 
d="M366 -260h-252q-23 13 -32 28v16q9 24 56 24h192l8 -4l4 8v1752h-224q-36 6 -36 32q8 32 48 32h224q37 0 52 -40v-1804q-12 -32 -40 -44z" />
    <glyph glyph-name="asciicircum" unicode="^" horiz-adv-x="1014" 
d="M514 1696q22 0 28 -32q-6 -24 -204 -148l-204 -136h-8q-23 0 -36 28q18 34 212 156q192 132 212 132zM606 1632h4q20 0 316 -204l8 -20q-8 -28 -32 -28q-19 0 -312 204q-8 13 -8 20q7 18 24 28z" />
    <glyph glyph-name="underscore" unicode="_" horiz-adv-x="1024" 
d="M-18 -56h1040q28 -14 28 -36q-12 -28 -36 -28h-1028q-23 0 -36 28v8q9 15 32 28z" />
    <glyph glyph-name="grave" unicode="`" horiz-adv-x="1024" 
d="M673 1079h-69l-330 202q-31 20 -46.5 40t-15.5 42q0 31 20.5 51t53.5 20q20 0 40.5 -12t55.5 -47z" />
    <glyph glyph-name="a" unicode="a" 
d="M560 1356q22 0 80 -168q132 -320 200 -504v-4q0 -32 -40 -32h-488q-248 -630 -260 -640q-13 -8 -20 -8q-12 0 -32 32q52 119 268 664q15 12 28 12h472l-244 620q12 28 36 28zM504 1244q17 -5 24 -20v-16q-148 -400 -168 -432l-12 -8h-20q-6 0 -16 16v12q0 23 168 440
q16 8 24 8zM836 608h8q34 0 68 -116q172 -403 188 -456v-16q0 -5 -20 -20h-4q-36 0 -76 132q-184 428 -184 452q6 17 20 24z" />
    <glyph glyph-name="b" unicode="b" horiz-adv-x="922" 
d="M124 1364h272q11 -7 96 -20q248 -89 248 -316v-48q0 -237 -264 -320q-65 -12 -116 -12h-84q-31 0 -44 24v4q0 32 32 32h108q215 0 296 184q12 52 16 112q0 192 -168 268q-76 28 -148 28h-244q-32 0 -32 32q0 12 32 32zM32 1356h8q5 0 20 -20v-1304q-2 -32 -32 -32
q-28 0 -28 56v1244q0 56 32 56zM652 676q68 0 152 -128q36 -87 36 -184v-20q0 -249 -252 -328q-48 -16 -108 -16h-348q-24 0 -32 28q0 28 44 32h352q284 38 284 276v40q0 183 -136 244q-17 0 -24 28q13 28 32 28z" />
    <glyph glyph-name="c" unicode="c" horiz-adv-x="1131" 
d="M628 1304h48q148 0 340 -112l8 -20q0 -24 -32 -28q-170 100 -332 100h-16q-324 0 -516 -312q-72 -143 -72 -284q0 -317 296 -512q141 -80 276 -80h40q156 0 324 100h4q5 0 20 -20v-8q0 -49 -224 -112q-55 -16 -136 -16h-8q-367 0 -576 352q-72 148 -72 292v12
q0 348 332 564q177 84 296 84z" />
    <glyph glyph-name="d" unicode="d" horiz-adv-x="936" 
d="M136 1364h52q12 -7 140 -24q291 -85 404 -256q112 -172 112 -376v-56q0 -411 -384 -588q-161 -64 -308 -64h-12q-36 6 -36 32q7 18 24 28h20q303 0 508 216q128 162 128 384v40q0 435 -432 568q-99 32 -220 32q-25 0 -28 32v4q9 15 32 28zM24 1356h24q16 -6 16 -28v-1296
q0 -28 -28 -28q-24 0 -36 36v1284q16 32 24 32z" />
    <glyph glyph-name="e" unicode="e" horiz-adv-x="998" 
d="M32 1368h864q32 -14 32 -36q0 -25 -32 -28h-864q-32 0 -32 32q0 17 32 32zM44 716h840q31 0 44 -24v-4q0 -36 -56 -36h-816q-56 0 -56 36v4q13 24 44 24zM36 64h856q36 0 36 -32t-48 -32h-832q-48 0 -48 36q5 28 36 28z" />
    <glyph glyph-name="f" unicode="f" horiz-adv-x="1150" 
d="M136 1364h936q32 -16 32 -40q-8 -24 -32 -24h-936q-32 0 -32 32v4q9 15 32 28zM24 1356h24q16 -6 16 -28v-1308q-10 -20 -32 -20q-17 4 -32 36v1288q16 32 24 32zM136 708h676q32 0 32 -32q-5 -28 -36 -28h-668q-22 0 -36 24v4q0 32 32 32z" />
    <glyph glyph-name="g" unicode="g" horiz-adv-x="1402" 
d="M644 720h540q20 -10 20 -32q-5 -16 -20 -24h-540q-20 10 -20 32q6 17 20 24zM632 1308h48q148 0 340 -112l8 -20q0 -24 -32 -28q-170 100 -332 100h-16q-318 0 -516 -308q-72 -152 -72 -288q0 -317 296 -512q141 -80 276 -80h36q281 0 472 252q108 169 108 336
q-4 16 -4 32v12q0 6 16 16h12q28 0 28 -28v-40q0 -330 -308 -544q-157 -96 -348 -96h-8q-298 0 -512 264q-124 186 -124 356v64q0 188 140 376q134 165 364 228q47 12 128 20z" />
    <glyph glyph-name="h" unicode="h" horiz-adv-x="927" 
d="M24 1356h24q16 -6 16 -28v-560q-10 -20 -32 -20q-17 4 -32 36v540q16 32 24 32zM812 1356h8q5 0 20 -20v-656q0 -32 -36 -32h-740v-628q-10 -20 -32 -20q-17 4 -32 36v636q15 36 40 36h740v608q0 40 32 40zM800 608h12q28 0 28 -28v-556q0 -5 -20 -20h-20q-20 9 -20 40
v524q0 31 20 40z" />
    <glyph glyph-name="i" unicode="i" horiz-adv-x="143" 
d="M24 1352h20q20 -10 20 -32v-1288q0 -22 -20 -32h-20q-7 0 -24 28v1288q0 22 24 36z" />
    <glyph glyph-name="j" unicode="j" horiz-adv-x="799" 
d="M676 1360h12q28 0 28 -28v-676q0 -406 -376 -584q-98 -49 -308 -72q-19 0 -32 32q0 36 108 36q62 0 248 76q300 163 300 528v648q0 31 20 40z" />
    <glyph glyph-name="k" unicode="k" horiz-adv-x="922" 
d="M20 1356h12q28 0 28 -28v-620h488q37 0 76 -136q8 -5 216 -540q0 -32 -32 -32q-27 0 -84 172q-8 9 -192 476h-496q-36 0 -36 44v624q0 31 20 40zM812 1356q25 0 28 -32q-236 -515 -272 -572l-8 -4h-8q-28 0 -28 28v4q40 106 268 572zM20 608h12q28 0 28 -28v-548
q0 -28 -28 -28q-32 0 -32 36v528q0 31 20 40z" />
    <glyph glyph-name="l" unicode="l" horiz-adv-x="927" 
d="M24 1360h24q16 -6 16 -28v-1272h748q32 0 32 -32q-12 -28 -36 -28h-764q-29 0 -44 40v1288q16 32 24 32z" />
    <glyph glyph-name="m" unicode="m" horiz-adv-x="1450" 
d="M20 1356h24l636 -632l636 632h12q28 0 28 -28q0 -23 -104 -116q-553 -560 -564 -560l-8 -4q-23 1 -264 256q-416 407 -416 424q8 25 20 28zM36 1260q18 -7 28 -24v-1204q0 -32 -32 -32q-25 0 -28 32v1204q16 24 32 24zM1332 1260q12 0 32 -32v-1188q-5 -40 -36 -40
q-25 0 -28 32v1196q2 32 32 32z" />
    <glyph glyph-name="n" unicode="n" 
d="M36 1360q30 -12 132 -148l932 -1168q4 -7 4 -16q-13 -28 -32 -28q-23 5 -120 136l-888 1108v-1224q-10 -20 -32 -20q-17 4 -32 36v1288q11 28 32 36h4zM1080 1356q24 -8 24 -32v-1140q0 -5 -20 -20h-8q-32 0 -32 40v1116q5 36 36 36z" />
    <glyph glyph-name="o" unicode="o" horiz-adv-x="1402" 
d="M675 1364v-4l9 4q4 0 4 -4l8 4h17q5 0 5 -4l8 4l9 -4q4 0 4 4q115 0 303 -89q234 -130 325 -401q30 -103 30 -207q0 -231 -167 -443q-117 -126 -260 -186q-106 -38 -141 -38q-20 8 -22 17v13q0 34 94 46q123 39 265 169q167 198 167 397v63q0 180 -154 380
q-206 216 -487 216h-26l-21 -5v5q-182 -27 -295 -102q-172 -107 -256 -338q-26 -59 -34 -185q0 -352 337 -558q92 -42 184 -63l4 -21v-13q0 -6 -17 -17h-4q-132 0 -342 165q-222 227 -222 502q0 314 261 541q213 152 414 152z" />
    <glyph glyph-name="p" unicode="p" horiz-adv-x="889" 
d="M136 1364h304q9 -7 92 -20q149 -50 212 -164q40 -111 40 -168v-16q0 -101 -72 -216q-121 -132 -296 -132h-276q-36 6 -36 32q7 18 24 28h280q241 0 304 216q8 40 8 80q0 213 -196 280q-70 16 -120 16h-268q-32 0 -32 32v4q9 15 32 28zM36 1360q18 0 32 -32
q-4 -274 -4 -408v-900q-10 -20 -32 -20q-17 4 -32 36v1288q11 28 32 36h4z" />
    <glyph glyph-name="q" unicode="q" horiz-adv-x="1383" 
d="M400 551h368q39 0 132 -108q495 -486 496 -504v-4q-12 -28 -36 -28q-19 3 -400 392l-196 192h-380q-5 0 -20 20v8q0 32 36 32zM628 1304h44q234 0 440 -188q150 -167 172 -300q16 -51 24 -140v-48q0 -148 -112 -340l-20 -8q-24 0 -28 32q100 170 100 332v16
q0 290 -260 484q-162 100 -328 100h-16q-312 0 -508 -296q-76 -148 -76 -284v-36q0 -204 164 -392q187 -180 404 -180h40q156 0 324 100h4q5 0 20 -20v-8q0 -49 -224 -112q-55 -16 -136 -16h-8q-367 0 -576 352q-72 148 -72 292v12q0 354 344 572q168 76 284 76z" />
    <glyph glyph-name="r" unicode="r" horiz-adv-x="898" 
d="M132 1364h280q364 -46 364 -360q0 -189 -152 -288h-16q-5 0 -20 20v8q0 17 64 72q64 85 64 188q0 218 -208 280q-53 16 -132 16h-244q-22 0 -32 20v8q0 25 32 36zM20 1356h20q5 0 20 -20v-628h456q34 0 64 -108q228 -558 228 -572q-12 -28 -36 -28t-108 236
q-164 399 -164 412h-464q-36 5 -36 36v640q0 22 20 32zM20 608h20q5 0 20 -20v-552q0 -22 -20 -32h-20q-20 10 -20 32v540q0 22 20 32z" />
    <glyph glyph-name="s" unicode="s" horiz-adv-x="898" 
d="M332 1368h300q36 -12 36 -36v-8q0 -5 -20 -20h-284q-154 0 -264 -128h-12q-28 0 -28 28q10 55 144 128q56 20 124 32q0 4 4 4zM56 1168q28 -8 28 -32q-20 -79 -20 -132v-24q0 -172 164 -220q314 -35 380 -92q48 -19 128 -108q42 -56 60 -176q4 0 4 -4v-64q-7 -9 -16 -64
q-18 -16 -28 -16q-18 7 -28 24q8 69 8 88q0 280 -368 332q-165 16 -236 52q-132 96 -132 260q12 176 56 176zM732 224q28 0 28 -28v-12q-116 -184 -368 -184h-276q-47 0 -56 24v8q0 32 40 32h336q171 0 284 160h12z" />
    <glyph glyph-name="t" unicode="t" 
d="M36 1364h512q32 -16 32 -40v-1288q-6 -36 -32 -36q-28 8 -28 32v1268h-484q-22 0 -36 24v8q9 21 36 32zM652 1364h416q28 -17 28 -24v-20q0 -5 -20 -20h-424q-32 0 -32 32q0 17 32 32z" />
    <glyph glyph-name="u" unicode="u" 
d="M24 1356h24q16 -6 16 -28v-804q0 -368 316 -456q60 -8 100 -8h4q24 0 36 -28q-3 -32 -32 -32h-12q-208 0 -340 140q-87 97 -120 248q0 13 -16 104v832q16 32 24 32zM1064 1356h20q5 0 20 -20v-868q0 -347 -360 -452q-70 -16 -120 -16q-22 0 -32 20v8q0 36 96 36
q155 33 244 116q112 118 112 284v852q0 31 20 40z" />
    <glyph glyph-name="v" unicode="v" 
d="M32 1356q32 0 60 -104q484 -1197 484 -1220v-12q-3 -12 -28 -20q-28 0 -72 136q-468 1170 -476 1184v12q10 24 32 24zM1060 1356h20q5 0 20 -20v-4q0 -14 -408 -1064q-49 -136 -68 -136h-16q-20 10 -20 32q433 1130 464 1188z" />
    <glyph glyph-name="w" unicode="w" horiz-adv-x="1711" 
d="M16 1356h24q21 0 68 -284q208 -1011 208 -1048q-4 -15 -28 -24q-33 0 -52 124q-236 1187 -236 1212q8 18 16 20zM796 1356h12q32 0 60 -104q422 -1037 424 -1064q-5 -16 -20 -24h-20q-18 0 -88 196q-4 2 -356 888h-4q-4 -24 -428 -1076q-6 0 -16 -8h-4q-32 0 -32 32
q448 1137 464 1156zM1588 1356h8q20 -12 20 -28q-252 -1278 -264 -1316q-15 -12 -28 -12q-28 14 -28 32l264 1312q15 12 28 12z" />
    <glyph glyph-name="x" unicode="x" 
d="M32 1360q30 -12 132 -148q918 -1146 932 -1168q4 -7 4 -16v-4q-16 -24 -32 -24q-19 0 -188 224q-15 11 -880 1100v8q15 28 32 28zM1060 1356h20q5 0 20 -20v-4q0 -22 -156 -204q-290 -360 -320 -380h-8q-25 0 -28 32q0 18 384 472q41 61 88 104zM476 640h20q12 -3 20 -28
q-23 -43 -304 -400q-145 -192 -176 -212h-8q-18 7 -28 24v12q439 571 476 604z" />
    <glyph glyph-name="y" unicode="y" horiz-adv-x="1193" 
d="M32 1360q17 0 144 -160q12 -20 400 -508l4 -24v-636q0 -32 -32 -32q-23 0 -28 44v612q0 19 -168 220l-352 448v8q15 28 32 28zM1060 1356h20q5 0 20 -20v-8q0 -22 -172 -228q-255 -339 -300 -384h-12q-25 0 -28 32q0 14 232 304q196 260 240 304z" />
    <glyph glyph-name="z" unicode="z" 
d="M36 1368h1032q36 -21 36 -40q-1027 -1291 -1060 -1320q-7 -4 -16 -4q-18 7 -28 24v12l1008 1264h-972q-22 0 -36 24v8q9 21 36 32zM136 64h928q36 -5 36 -36q-9 -28 -48 -28h-904q-48 0 -48 36v4q14 24 36 24z" />
    <glyph glyph-name="braceleft" unicode="{" horiz-adv-x="1014" 
d="M292 1704q28 0 28 -28v-12q-172 -186 -172 -356v-44q0 -83 44 -188q-96 -264 -108 -280l-20 -4h-8q-5 0 -20 20v12q0 10 92 252q-41 101 -44 204q0 228 192 420q7 4 16 4zM32 780h12q18 0 88 -220q5 -2 60 -156q-44 -102 -44 -180v-48q0 -171 168 -352q4 -7 4 -16
q0 -21 -16 -28h-24q-196 191 -196 424q0 93 44 200q-112 308 -128 340v12q10 24 32 24z" />
    <glyph glyph-name="bar" unicode="|" horiz-adv-x="299" 
d="M124 1532h20q20 -10 20 -32v-1568q0 -22 -20 -32h-20q-7 0 -24 28v1568q0 22 24 36z" />
    <glyph glyph-name="braceright" unicode="}" horiz-adv-x="499" 
d="M44 1700q192 -192 192 -420q-3 -103 -44 -204q92 -242 92 -252v-12q-15 -20 -20 -20h-8l-20 4q-12 16 -108 280q44 105 44 188v44q0 170 -172 356v12q0 28 28 28q9 0 16 -4zM320 756v-12q-16 -32 -128 -340q44 -107 44 -200q0 -233 -196 -424h-24q-16 7 -16 28q0 9 4 16
q168 181 168 352v48q0 78 -44 180q55 154 60 156q70 220 88 220h12q22 0 32 -24z" />
    <glyph glyph-name="asciitilde" unicode="~" horiz-adv-x="1014" 
d="M880 1036h20q27 0 44 -132q0 -173 -192 -252q-48 -8 -72 -8q-104 0 -180 76q-4 7 -4 16v12q0 6 16 16h20q64 -64 148 -64h4q122 0 184 120q20 43 20 88q0 38 -28 104q6 17 20 24zM264 960h8q139 0 220 -140v-12q-37 -16 -44 -16h-4q-61 112 -168 112h-20
q-141 0 -196 -164l-4 -40l12 -84q-22 -16 -28 -16q-40 11 -40 100q0 173 192 252q40 8 72 8z" />
    <glyph glyph-name="exclamdown" unicode="&#xa1;" horiz-adv-x="356" 
d="M0 1048v12q15 20 20 20h20l8 -4q16 -48 32 -48q24 0 32 24l-8 28q-44 6 -44 20v20q15 20 20 20h12q22 0 52 -20l32 -60v-8q-29 -84 -92 -84q-84 16 -84 80zM70 -374v896q14 28 32 28q32 0 32 -36v-892q0 -22 -20 -32h-20q-24 14 -24 36z" />
    <glyph glyph-name="cent" unicode="&#xa2;" horiz-adv-x="651" 
d="M432 838h20q20 -10 20 -32q-248 -934 -268 -988l-12 -8h-20q-20 12 -20 28q252 960 268 992zM308 650q24 -8 24 -32v-8q0 -15 -92 -28q-184 -81 -184 -260q0 -136 132 -236v-12q0 -22 -32 -28q-93 46 -144 188q-12 39 -12 72v36q0 175 196 284q64 24 112 24zM456 618h8
q76 -29 76 -60q-13 -28 -32 -28q-80 40 -80 64t28 24zM508 114q24 0 24 -28v-12q-84 -76 -184 -76h-36q-28 0 -28 28t28 28h24q72 0 168 60h4z" />
    <glyph glyph-name="sterling" unicode="&#xa3;" 
d="M524 1364h192l88 -28q65 -14 132 -108q40 -89 40 -144v-24q0 -5 -20 -20h-16q-21 0 -36 112q-57 148 -220 148l-8 -4q-67 4 -104 4h-12q-163 0 -268 -128h-24q-6 0 -16 16v24q50 85 196 132q60 14 76 20zM248 1164q25 0 28 -32q-20 -87 -20 -160q0 -71 64 -192v-4
q0 -22 -32 -28q-39 0 -88 176l-4 48q0 192 52 192zM196 708h588q5 0 20 -20v-20q-9 -20 -40 -20h-564q-24 0 -36 28q3 32 32 32zM264 612h572q24 0 36 -28q-3 -32 -32 -32h-588q-5 0 -20 20v20q10 20 32 20zM424 512q77 -32 92 -220v-96q0 -150 -168 -192q-21 -4 -48 -4h-4
q-32 0 -32 32q0 28 112 40q80 45 80 124v96q0 101 -60 180q-4 7 -4 16q8 24 32 24zM216 388q103 0 168 -144q28 -29 28 -48q-5 -16 -20 -24h-12q-29 0 -100 128q-24 24 -52 24h-24q-117 0 -140 -104q0 -12 -4 -28q0 -97 96 -128q68 -4 68 -32q-3 -32 -32 -32
q-192 23 -192 192q0 138 140 184q37 8 76 12zM1072 124q28 -12 28 -36q-34 -48 -164 -80q-50 -8 -84 -8h-24q-336 11 -336 52v20q8 15 24 20q156 -32 304 -32h32q91 0 220 64z" />
    <glyph glyph-name="currency" unicode="&#xa4;" horiz-adv-x="1014" 
d="M350 560q41 -40 99 -57q29 -8 58 -8t58 8q58 17 99 57q40 41 57 99q9 29 9 58t-9 58q-17 58 -57 99q-41 40 -100 57q-29 8 -58 8t-58 -9q-58 -17 -98 -56q-39 -40 -56 -98q-10 -30 -10 -60q0 -28 9 -56q16 -59 57 -100zM240 903l-118 118l80 81l118 -118q44 30 99 46
q44 14 89 14q41 0 83 -12q57 -17 102 -48l118 118l80 -81l-117 -117q31 -46 48 -102q12 -42 12 -85q0 -42 -12 -85q-17 -56 -48 -102l117 -117l-80 -81l-118 118q-45 -32 -101 -48q-42 -12 -85 -12q-42 0 -85 12q-57 16 -102 48l-118 -118l-80 81l118 117q-32 46 -48 103
q-12 42 -12 84q0 44 13 87q16 55 47 99z" />
    <glyph glyph-name="yen" unicode="&#xa5;" horiz-adv-x="1262" 
d="M16 1356h24q22 -18 392 -488q144 -172 144 -192v-644q0 -32 -32 -32q-23 0 -28 44v624q-516 644 -516 656v4q0 22 16 28zM1056 1356h20q20 -10 20 -32q-3 -19 -424 -548q-33 -60 -60 -60q-25 0 -28 32q0 13 232 304q213 281 240 304zM44 840h228q44 0 44 -32
q0 -16 -20 -28h-276q-5 0 -20 20v8q0 32 44 32zM824 840h228q44 0 44 -36q-8 -24 -32 -24h-256q-28 0 -28 28q0 32 44 32zM44 580h392q44 -5 44 -28q-3 -32 -32 -32h-416q-32 0 -32 32q0 23 44 28zM660 580h380q46 0 52 -20v-12q0 -28 -28 -28h-416q-32 0 -32 32v4
q13 24 44 24z" />
    <glyph glyph-name="brokenbar" unicode="&#xa6;" horiz-adv-x="1014" 
d="M427 371h160v-789h-160v789zM427 1578h160v-789h-160v789z" />
    <glyph glyph-name="section" unicode="&#xa7;" horiz-adv-x="1014" 
d="M545 321q56 16 97 53q73 65 73 166q0 5 -1 10h-2q-1 14 -4 27q-22 61 -113 127q-59 29 -126 29q-78 0 -125 -44.5t-47 -117.5q0 -123 248 -250zM466 -346q113 6 185 69q72 64 72 165q0 125 -316 276q-123 64 -175.5 137t-52.5 177q0 148 89 237q67 65 170 82l-40 19
q-123 64 -175.5 137t-52.5 177q0 148 89 237q82 79 216 86q8 1 17 1h3q66 0 163 -16.5t97 -41.5v-194h-51q-5 81 -80 132q-70 47 -149 51h-15q-78 0 -125 -44.5t-47 -117.5q0 -132 287 -269q149 -67 204.5 -143.5t55.5 -187.5q0 -171 -101 -282q-47 -39 -99 -64
q108 -56 154 -118q55 -77 55 -187q0 -171 -101 -283q-124 -102 -277 -105v1q-6 -1 -13 -1h-3q-66 0 -163 16.5t-97 41.5v194h51q5 -81 80 -132q68 -45 145 -50z" />
    <glyph glyph-name="dieresis" unicode="&#xa8;" horiz-adv-x="1024" 
d="M223 1289l71 72q13 12 25 12q11 0 27 -14l69 -73q10 -14 10 -25q0 -13 -12 -27l-69 -75q-17 -17 -25 -17q-14 0 -25 12l-76 86q-9 12 -9 23q0 13 14 26zM588 1289l71 72q13 12 25 12q11 0 27 -13l69 -74q10 -14 10 -25q0 -13 -12 -26l-69 -76q-17 -17 -25 -17
q-14 0 -25 12l-76 87q-9 11 -9 22q0 13 14 26z" />
    <glyph glyph-name="copyright" unicode="&#xa9;" horiz-adv-x="1674" 
d="M840 1456q145 0 280 -56.5t239 -160.5q102 -101 158.5 -238t56.5 -283q0 -147 -56.5 -282t-162.5 -240q-105 -105 -239 -159.5t-283 -54.5q-146 0 -278 55.5t-238 160.5q-106 104 -161.5 237.5t-55.5 282.5q0 148 55.5 283t159.5 238q102 104 238.5 160.5t286.5 56.5z
M357 1197q-95 -96 -146 -219.5t-51 -259.5q0 -137 51 -259t148 -219q98 -96 219 -147t256 -51q137 0 259.5 50.5t219.5 145.5q97 98 149 221.5t52 258.5q0 134 -52 259.5t-145 219.5q-96 96 -220 147.5t-258 51.5q-137 0 -262 -51.5t-220 -147.5zM865 223q-142 0 -264 68
t-186 185t-64 243t65.5 244t187.5 184.5t254 66.5q38 0 75 -6.5t76 -20.5q5 -1 9 -1q19 0 26 30h42l72 -198h-44q-52 94 -131 124q-72 26 -147 26h-15q-86 -8 -166.5 -71t-121.5 -177q-33 -90 -33 -184q0 -25 2 -50q11 -121 69.5 -224t149.5 -152q72 -40 166 -42
q124 0 194 56t70 126h53v-100q0 -46 -96.5 -86.5t-242.5 -40.5z" />
    <glyph glyph-name="ordfeminine" unicode="&#xaa;" horiz-adv-x="648" 
 />
    <glyph glyph-name="guillemotleft" unicode="&#xab;" horiz-adv-x="1098" 
d="M688 1360q20 -10 20 -32q0 -11 -668 -672h-12q-28 13 -28 32q0 17 392 400q263 272 280 272h16zM100 640q17 0 372 -364q236 -225 236 -248q-7 -18 -24 -28h-4q-22 0 -160 148q-275 270 -452 452v20q10 20 32 20zM972 0q-17 0 -280 272q-392 383 -392 400q0 19 28 32h12
q668 -661 668 -672q0 -22 -20 -32h-16zM368 740v20q177 182 452 452q138 148 160 148h4q17 -10 24 -28q0 -23 -236 -248q-355 -364 -372 -364q-22 0 -32 20z" />
    <glyph glyph-name="logicalnot" unicode="&#xac;" horiz-adv-x="1014" 
d="M87 767h840v-491l-1 -1h-98v392h-741v100z" />
    <glyph glyph-name="registered" unicode="&#xae;" horiz-adv-x="1674" 
d="M751 1099v-374l3 -8q23 -56 56 -81q29 -22 56 -22h6q31 4 61.5 38.5t46.5 97.5q13 50 13 103q0 13 -1 27q-4 67 -28 124.5t-56.5 76t-63.5 18.5h-93zM984 576l82 -116q100 -141 150 -141h34v-50h-346v50h45q30 0 30 22q0 29 -69 114l-75 102q-42 0 -84 42v-159
q0 -121 36 -121h53v-50h-316v50h43q37 0 37 121v538q0 121 -37 121h-43v70h356q64 -1 125 -42q60 -41 92.5 -114t32.5 -152q0 -78 -32 -150.5t-114 -134.5zM840 1456q145 0 280 -56.5t239 -160.5q102 -101 158.5 -238t56.5 -283q0 -147 -56.5 -282t-162.5 -240
q-105 -105 -239 -159.5t-283 -54.5q-146 0 -278 55.5t-238 160.5q-106 104 -161.5 237.5t-55.5 282.5q0 148 55.5 283t159.5 238q102 104 238.5 160.5t286.5 56.5zM357 1197q-95 -96 -146 -219.5t-51 -259.5q0 -137 51 -259t148 -219q98 -96 219 -147t256 -51
q137 0 259.5 50.5t219.5 145.5q97 98 149 221.5t52 258.5q0 134 -52 259.5t-145 219.5q-96 96 -220 147.5t-258 51.5q-137 0 -262 -51.5t-220 -147.5z" />
    <glyph glyph-name="macron" unicode="&#xaf;" horiz-adv-x="670" 
d="M-92 1610h1040q28 -14 28 -36q-12 -28 -36 -28h-1028q-23 0 -36 28v8q9 15 32 28z" />
    <glyph glyph-name="degree" unicode="&#xb0;" horiz-adv-x="674" 
d="M232 1605q-32 0 -84 -20q-152 -86 -152 -212v-48q0 -54 36 -116q46 -78 152 -112q16 0 28 20v12l-4 20q-152 61 -152 184v44q48 168 196 168h20q180 -41 180 -196v-8q0 -77 -60 -140q-80 -51 -80 -56v-12q0 -28 28 -28q172 71 172 240q0 45 -12 80q-76 180 -232 180h-36z
" />
    <glyph glyph-name="plusminus" unicode="&#xb1;" horiz-adv-x="1554" 
d="M776 1564q28 -13 28 -36v-544q0 -32 -32 -32q-28 0 -28 44v520q0 35 32 48zM120 912h1308q24 0 32 -28q0 -28 -44 -32h-1276q-31 0 -40 20v20q0 5 20 20zM776 812q25 0 28 -32v-544q0 -23 -28 -36q-32 13 -32 48v528q0 36 32 36zM120 912h1308q24 0 32 -28q0 -28 -44 -32
h-1276q-31 0 -40 20v20q0 5 20 20zM120 -44h1308q24 0 32 -28q0 -28 -44 -32h-1276q-31 0 -40 20v20q0 6 20 20z" />
    <glyph glyph-name="uni00B2" unicode="&#xb2;" horiz-adv-x="1014" 
 />
    <glyph glyph-name="uni00B3" unicode="&#xb3;" horiz-adv-x="1014" 
 />
    <glyph glyph-name="acute" unicode="&#xb4;" horiz-adv-x="1024" 
d="M607 1375q35 35 55.5 47t40.5 12q33 0 53.5 -20t20.5 -51q0 -22 -15.5 -42t-46.5 -40l-330 -203h-69z" />
    <glyph glyph-name="mu" unicode="&#xb5;" horiz-adv-x="1180" 
 />
    <glyph glyph-name="paragraph" unicode="&#xb6;" horiz-adv-x="1024" 
d="M929 1435v-70h-127v-1365h-82v1365h-166v-1365h-84v738q-174 8 -275.5 102.5t-101.5 245.5q0 157 107.5 253t285.5 96h443z" />
    <glyph glyph-name="periodcentered" unicode="&#xb7;" horiz-adv-x="508" 
d="M336 702v-12q-15 -20 -20 -20h-20l-8 4q-16 48 -32 48q-24 0 -32 -24l8 -28q44 -6 44 -20v-20q-15 -20 -20 -20h-12q-22 0 -52 20l-32 60v8q29 84 92 84q84 -16 84 -80z" />
    <glyph glyph-name="periodcentered" unicode="&#x2219;" horiz-adv-x="508" 
d="M336 702v-12q-15 -20 -20 -20h-20l-8 4q-16 48 -32 48q-24 0 -32 -24l8 -28q44 -6 44 -20v-20q-15 -20 -20 -20h-12q-22 0 -52 20l-32 60v8q29 84 92 84q84 -16 84 -80z" />
    <glyph glyph-name="cedilla" unicode="&#xb8;" horiz-adv-x="1024" 
d="M498 -64h16q16 -6 16 -28v-84q0 -21 -16 -28h-16q-6 0 -16 16v108q0 6 16 16zM574 -160h8q95 0 112 -124q0 -99 -120 -116h-20q-84 16 -84 56q8 18 16 20h8q8 0 56 -28h24q68 8 68 64v16q0 59 -84 68q-12 16 -12 24q6 20 28 20z" />
    <glyph glyph-name="uni00B9" unicode="&#xb9;" horiz-adv-x="1014" 
 />
    <glyph glyph-name="ordmasculine" unicode="&#xba;" horiz-adv-x="718" 
 />
    <glyph glyph-name="guillemotright" unicode="&#xbb;" horiz-adv-x="1098" 
d="M320 0q-20 10 -20 32q0 11 668 672h12q28 -13 28 -32q0 -17 -392 -400q-263 -272 -280 -272h-16zM908 720q-17 0 -372 364q-236 225 -236 248q7 18 24 28h4q22 0 160 -148q275 -270 452 -452v-20q-10 -20 -32 -20zM36 1360q17 0 280 -272q392 -383 392 -400
q0 -19 -28 -32h-12q-668 661 -668 672q0 22 20 32h16zM640 620v-20q-177 -182 -452 -452q-138 -148 -160 -148h-4q-17 10 -24 28q0 23 236 248q355 364 372 364q22 0 32 -20z" />
    <glyph glyph-name="onequarter" unicode="&#xbc;" horiz-adv-x="1708" 
 />
    <glyph glyph-name="onehalf" unicode="&#xbd;" horiz-adv-x="1964" 
 />
    <glyph glyph-name="threequarters" unicode="&#xbe;" horiz-adv-x="1708" 
 />
    <glyph glyph-name="questiondown" unicode="&#xbf;" horiz-adv-x="748" 
 />
    <glyph glyph-name="Agrave" unicode="&#xc0;" 
d="M560 1356q22 0 80 -168q132 -320 200 -504v-4q0 -32 -40 -32h-488q-248 -630 -260 -640q-13 -8 -20 -8q-12 0 -32 32q52 119 268 664q15 12 28 12h472l-244 620q12 28 36 28zM504 1244q17 -5 24 -20v-16q-148 -400 -168 -432l-12 -8h-20q-6 0 -16 16v12q0 23 168 440
q16 8 24 8zM836 608h8q34 0 68 -116q172 -403 188 -456v-16q0 -5 -20 -20h-4q-36 0 -76 132q-184 428 -184 452q6 17 20 24zM316 1688h20q451 -259 456 -268q4 -7 4 -16v-4q-7 -14 -24 -20q-426 238 -472 276v12q8 18 16 20z" />
    <glyph glyph-name="Aacute" unicode="&#xc1;" 
d="M560 1356q22 0 80 -168q132 -320 200 -504v-4q0 -32 -40 -32h-488q-248 -630 -260 -640q-13 -8 -20 -8q-12 0 -32 32q52 119 268 664q15 12 28 12h472l-244 620q12 28 36 28zM504 1244q17 -5 24 -20v-16q-148 -400 -168 -432l-12 -8h-20q-6 0 -16 16v12q0 23 168 440
q16 8 24 8zM836 608h8q34 0 68 -116q172 -403 188 -456v-16q0 -5 -20 -20h-4q-36 0 -76 132q-184 428 -184 452q6 17 20 24zM300 1400v12q46 38 472 276q17 -5 24 -20v-4q0 -9 -4 -16q-5 -9 -456 -268h-20q-8 2 -16 20z" />
    <glyph glyph-name="Acircumflex" unicode="&#xc2;" 
d="M560 1356q22 0 80 -168q132 -320 200 -504v-4q0 -32 -40 -32h-488q-248 -630 -260 -640q-13 -8 -20 -8q-12 0 -32 32q52 119 268 664q15 12 28 12h472l-244 620q12 28 36 28zM504 1244q17 -5 24 -20v-16q-148 -400 -168 -432l-12 -8h-20q-6 0 -16 16v12q0 23 168 440
q16 8 24 8zM836 608h8q34 0 68 -116q172 -403 188 -456v-16q0 -5 -20 -20h-4q-36 0 -76 132q-184 428 -184 452q6 17 20 24zM520 1696q21 0 28 -28q0 -25 -196 -144q-202 -144 -224 -144q-25 0 -28 32q26 40 224 160q173 124 196 124zM624 1632q287 -183 312 -212v-12
q0 -28 -28 -28q-19 0 -312 204q-8 13 -8 20q8 28 36 28z" />
    <glyph glyph-name="Atilde" unicode="&#xc3;" 
d="M560 1356q22 0 80 -168q132 -320 200 -504v-4q0 -32 -40 -32h-488q-248 -630 -260 -640q-13 -8 -20 -8q-12 0 -32 32q52 119 268 664q15 12 28 12h472l-244 620q12 28 36 28zM504 1244q17 -5 24 -20v-16q-148 -400 -168 -432l-12 -8h-20q-6 0 -16 16v12q0 23 168 440
q16 8 24 8zM836 608h8q34 0 68 -116q172 -403 188 -456v-16q0 -5 -20 -20h-4q-36 0 -76 132q-184 428 -184 452q6 17 20 24zM385 1590h23q92 0 163 -82v-4q-10 -29 -39 -29q-57 62 -133 62q-128 0 -181 -149l-15 -9q-33 0 -33 33q66 178 215 178zM929 1570q33 0 33 -33
q-67 -173 -219 -173h-5q-104 0 -172 77v19q10 19 29 19q73 -62 143 -62q115 0 167 129q0 7 24 24z" />
    <glyph glyph-name="Adieresis" unicode="&#xc4;" 
d="M560 1356q22 0 80 -168q132 -320 200 -504v-4q0 -32 -40 -32h-488q-248 -630 -260 -640q-13 -8 -20 -8q-12 0 -32 32q52 119 268 664q15 12 28 12h472l-244 620q12 28 36 28zM504 1244q17 -5 24 -20v-16q-148 -400 -168 -432l-12 -8h-20q-6 0 -16 16v12q0 23 168 440
q16 8 24 8zM836 608h8q34 0 68 -116q172 -403 188 -456v-16q0 -5 -20 -20h-4q-36 0 -76 132q-184 428 -184 452q6 17 20 24zM200 1592v-12q15 -20 20 -20h20l8 4q16 48 32 48q24 0 32 -24l-8 -28q-44 -6 -44 -20v-20q15 -20 20 -20h12q22 0 52 20l32 60v8q-29 84 -92 84
q-84 -16 -84 -80zM700 1592v-12q15 -20 20 -20h20l8 4q16 48 32 48q24 0 32 -24l-8 -28q-44 -6 -44 -20v-20q15 -20 20 -20h12q22 0 52 20l32 60v8q-29 84 -92 84q-84 -16 -84 -80z" />
    <glyph glyph-name="Aring" unicode="&#xc5;" 
d="M560 1356q22 0 80 -168q132 -320 200 -504v-4q0 -32 -40 -32h-488q-248 -630 -260 -640q-13 -8 -20 -8q-12 0 -32 32q52 119 268 664q15 12 28 12h472l-244 620q12 28 36 28zM504 1244q17 -5 24 -20v-16q-148 -400 -168 -432l-12 -8h-20q-6 0 -16 16v12q0 23 168 440
q16 8 24 8zM836 608h8q34 0 68 -116q172 -403 188 -456v-16q0 -5 -20 -20h-4q-36 0 -76 132q-184 428 -184 452q6 17 20 24zM562 1686q111 0 152 -128q4 -15 4 -36v-4q0 -105 -112 -148h-8q-5 0 -20 20q0 21 60 60q24 28 24 68v24q-26 92 -116 92q-104 -24 -104 -120
q0 -53 72 -96q6 0 12 -12v-20q-8 -16 -24 -16q-55 0 -104 100q-8 26 -8 36v24q0 114 136 156h36z" />
    <glyph glyph-name="AE" unicode="&#xc6;" horiz-adv-x="998" 
d="M652 1368h864q32 -14 32 -36q0 -25 -32 -28h-864q-32 0 -32 32q0 17 32 32zM944 716h840q31 0 44 -24v-4q0 -36 -56 -36h-816q-56 0 -56 36v4q13 24 44 24zM1186 64h856q36 0 36 -32t-48 -32h-832q-48 0 -48 36q5 28 36 28zM524 1328l244 -620h-472q-13 0 -28 -12
q-216 -545 -268 -664q20 -32 32 -32q7 0 20 8q12 10 260 640h488q40 0 40 32v4q-68 183 -200 504q-58 168 -80 168q-24 0 -36 -28zM480 1236q-168 -417 -168 -440v-12q10 -16 16 -16h20l12 8q20 32 168 432v16q-7 15 -24 20q-8 0 -24 -8zM836 608q-14 -7 -20 -24
q0 -24 184 -452q40 -132 76 -132h4q20 15 20 20v16q-16 53 -188 456q-34 116 -68 116h-8z" />
    <glyph glyph-name="Ccedilla" unicode="&#xc7;" horiz-adv-x="1098" 
d="M598 -24h16q16 -6 16 -28v-84q0 -21 -16 -28h-16q-6 0 -16 16v108q0 6 16 16zM674 -120h8q95 0 112 -124q0 -99 -120 -116h-20q-84 16 -84 56q8 18 16 20h8q8 0 56 -28h24q68 8 68 64v16q0 59 -84 68q-12 16 -12 24q6 20 28 20zM628 1304q-119 0 -296 -84
q-332 -216 -332 -564v-12q0 -144 72 -292q209 -352 576 -352h8q81 0 136 16q224 63 224 112v8q-15 20 -20 20h-4q-168 -100 -324 -100h-40q-135 0 -276 80q-296 195 -296 512q0 141 72 284q192 312 516 312h16q162 0 332 -100q32 4 32 28l-8 20q-192 112 -340 112h-48z" />
    <glyph glyph-name="Egrave" unicode="&#xc8;" horiz-adv-x="998" 
d="M32 1368h864q32 -14 32 -36q0 -25 -32 -28h-864q-32 0 -32 32q0 17 32 32zM44 716h840q31 0 44 -24v-4q0 -36 -56 -36h-816q-56 0 -56 36v4q13 24 44 24zM36 64h856q36 0 36 -32t-48 -32h-832q-48 0 -48 36q5 28 36 28zM266 1698h20q451 -259 456 -268q4 -7 4 -16v-4
q-7 -14 -24 -20q-426 238 -472 276v12q8 18 16 20z" />
    <glyph glyph-name="Eacute" unicode="&#xc9;" horiz-adv-x="1151" 
d="M32 1368h864q32 -14 32 -36q0 -25 -32 -28h-864q-32 0 -32 32q0 17 32 32zM250 1410v12q46 38 472 276q17 -6 24 -20v-4q0 -9 -4 -16q-5 -9 -456 -268h-20q-8 2 -16 20zM36 64h856q36 0 36 -32t-48 -32h-832q-48 0 -48 36q5 28 36 28zM44 716h840q31 0 44 -24v-4
q0 -36 -56 -36h-816q-56 0 -56 36v4q13 24 44 24z" />
    <glyph glyph-name="Ecircumflex" unicode="&#xca;" horiz-adv-x="998" 
d="M32 1368h864q32 -14 32 -36q0 -25 -32 -28h-864q-32 0 -32 32q0 17 32 32zM44 716h840q31 0 44 -24v-4q0 -36 -56 -36h-816q-56 0 -56 36v4q13 24 44 24zM36 64h856q36 0 36 -32t-48 -32h-832q-48 0 -48 36q5 28 36 28zM460 1706q21 0 28 -28q0 -25 -196 -144
q-202 -144 -224 -144q-25 0 -28 32q26 40 224 160q173 124 196 124zM564 1642q287 -183 312 -212v-12q0 -28 -28 -28q-19 0 -312 204q-8 13 -8 20q8 28 36 28z" />
    <glyph glyph-name="Edieresis" unicode="&#xcb;" horiz-adv-x="998" 
d="M32 1368h864q32 -14 32 -36q0 -25 -32 -28h-864q-32 0 -32 32q0 17 32 32zM44 716h840q31 0 44 -24v-4q0 -36 -56 -36h-816q-56 0 -56 36v4q13 24 44 24zM36 64h856q36 0 36 -32t-48 -32h-832q-48 0 -48 36q5 28 36 28zM160 1592v-12q15 -20 20 -20h20l8 4q16 48 32 48
q24 0 32 -24l-8 -28q-44 -6 -44 -20v-20q15 -20 20 -20h12q22 0 52 20l32 60v8q-29 84 -92 84q-84 -16 -84 -80zM660 1592v-12q15 -20 20 -20h20l8 4q16 48 32 48q24 0 32 -24l-8 -28q-44 -6 -44 -20v-20q15 -20 20 -20h12q22 0 52 20l32 60v8q-29 84 -92 84
q-84 -16 -84 -80z" />
    <glyph glyph-name="Igrave" unicode="&#xcc;" horiz-adv-x="143" 
d="M24 1352h20q20 -10 20 -32v-1288q0 -22 -20 -32h-20q-7 0 -24 28v1288q0 22 24 36zM-204 1698h20q451 -259 456 -268q4 -7 4 -16v-4q-7 -14 -24 -20q-426 238 -472 276v12q8 18 16 20z" />
    <glyph glyph-name="Iacute" unicode="&#xcd;" horiz-adv-x="143" 
d="M24 1352h20q20 -10 20 -32v-1288q0 -22 -20 -32h-20q-7 0 -24 28v1288q0 22 24 36zM-220 1410v12q46 38 472 276q17 -5 24 -20v-4q0 -9 -4 -16q-5 -9 -456 -268h-20q-8 2 -16 20z" />
    <glyph glyph-name="Icircumflex" unicode="&#xce;" horiz-adv-x="143" 
d="M24 1352h20q20 -10 20 -32v-1288q0 -22 -20 -32h-20q-7 0 -24 28v1288q0 22 24 36zM-166 1582q-198 -120 -224 -160q3 -32 28 -32q22 0 224 144q196 119 196 144q-7 28 -28 28q-23 0 -196 -124zM98 1614q0 -7 8 -20q293 -204 312 -204q28 0 28 28v12q-25 29 -312 212
q-28 0 -36 -28z" />
    <glyph glyph-name="Idieresis" unicode="&#xcf;" horiz-adv-x="200" 
d="M24 1352h20q20 -10 20 -32v-1288q0 -22 -20 -32h-20q-7 0 -24 28v1288q0 22 24 36zM-300 1592v-12q15 -20 20 -20h20l8 4q16 48 32 48q24 0 32 -24l-8 -28q-44 -6 -44 -20v-20q15 -20 20 -20h12q22 0 52 20l32 60v8q-29 84 -92 84q-84 -16 -84 -80zM200 1592v-12
q15 -20 20 -20h20l8 4q16 48 32 48q24 0 32 -24l-8 -28q-44 -6 -44 -20v-20q15 -20 20 -20h12q22 0 52 20l32 60v8q-29 84 -92 84q-84 -16 -84 -80z" />
    <glyph glyph-name="Eth" unicode="&#xd0;" horiz-adv-x="936" 
d="M38 1360h8q24 -9 24 -56v-416q0 -144 -20 -144q-4 0 -12 -4q-28 0 -32 44v540q0 36 32 36zM146 1360q334 0 560 -240q140 -177 140 -424v-32q0 -468 -452 -624q-121 -40 -252 -40q-36 6 -36 32q7 18 24 28h20q335 0 540 256q96 154 96 352v24q0 428 -408 572
q-134 36 -232 36h-8q-32 0 -32 32q10 28 40 28zM-250 708h568q28 0 28 -28v-12q-9 -20 -40 -20h-540q-36 0 -36 32v8q0 5 20 20zM38 620q28 0 28 -52q4 -24 4 -104v-404q-3 -56 -20 -56h-24q-20 9 -20 40v532q0 44 32 44z" />
    <glyph glyph-name="Ntilde" unicode="&#xd1;" 
d="M32 1360q-21 -8 -32 -36v-1288q15 -32 32 -36q22 0 32 20v1224l888 -1108q97 -131 120 -136q19 0 32 28q0 9 -4 16l-932 1168q-102 136 -132 148h-4zM1044 1320v-1116q0 -40 32 -40h8q20 15 20 20v1140q0 24 -24 32q-31 0 -36 -36zM385 1590h23q92 0 163 -82v-4
q-10 -29 -39 -29q-57 62 -133 62q-128 0 -181 -149l-15 -9q-33 0 -33 33q66 178 215 178zM929 1570q33 0 33 -33q-67 -173 -219 -173h-5q-104 0 -172 77v19q10 19 29 19q73 -62 143 -62q115 0 167 129q0 7 24 24z" />
    <glyph glyph-name="Ograve" unicode="&#xd2;" horiz-adv-x="1402" 
d="M675 1364v-4l9 4q4 0 4 -4l8 4h17q5 0 5 -4l8 4l9 -4q4 0 4 4q115 0 303 -89q234 -130 325 -401q30 -103 30 -207q0 -231 -167 -443q-117 -126 -260 -186q-106 -38 -141 -38q-20 8 -22 17v13q0 34 94 46q123 39 265 169q167 198 167 397v63q0 180 -154 380
q-206 216 -487 216h-26l-21 -5v5q-182 -27 -295 -102q-172 -107 -256 -338q-26 -59 -34 -185q0 -352 337 -558q92 -42 184 -63l4 -21v-13q0 -6 -17 -17h-4q-132 0 -342 165q-222 227 -222 502q0 314 261 541q213 152 414 152zM466 1688h20q451 -259 456 -268q4 -7 4 -16v-4
q-7 -14 -24 -20q-426 238 -472 276v12q8 18 16 20z" />
    <glyph glyph-name="Oacute" unicode="&#xd3;" horiz-adv-x="1614" 
d="M675 1364q-201 0 -414 -152q-261 -227 -261 -541q0 -275 222 -502q210 -165 342 -165h4q17 11 17 17v13l-4 21q-92 21 -184 63q-337 206 -337 558q8 126 34 185q84 231 256 338q113 75 295 102v-5l21 5h26q281 0 487 -216q154 -200 154 -380v-63q0 -199 -167 -397
q-142 -130 -265 -169q-94 -12 -94 -46v-13q2 -9 22 -17q35 0 141 38q143 60 260 186q167 212 167 443q0 104 -30 207q-91 271 -325 401q-188 89 -303 89q0 -4 -4 -4l-9 4l-8 -4q0 4 -5 4h-17l-8 -4q0 4 -4 4l-9 -4v4zM910 1688q-451 -259 -456 -268q-4 -7 -4 -16v-4
q7 -14 24 -20q426 238 472 276v12q-8 18 -16 20h-20z" />
    <glyph glyph-name="Ocircumflex" unicode="&#xd4;" horiz-adv-x="1614" 
d="M675 1364q-201 0 -414 -152q-261 -227 -261 -541q0 -275 222 -502q210 -165 342 -165h4q17 11 17 17v13l-4 21q-92 21 -184 63q-337 206 -337 558q8 126 34 185q84 231 256 338q113 75 295 102v-5l21 5h26q281 0 487 -216q154 -200 154 -380v-63q0 -199 -167 -397
q-142 -130 -265 -169q-94 -12 -94 -46v-13q2 -9 22 -17q35 0 141 38q143 60 260 186q167 212 167 443q0 104 -30 207q-91 271 -325 401q-188 89 -303 89q0 -4 -4 -4l-9 4l-8 -4q0 4 -5 4h-17l-8 -4q0 4 -4 4l-9 -4v4zM504 1582q-198 -120 -224 -160q3 -32 28 -32
q22 0 224 144q196 119 196 144q-7 28 -28 28q-23 0 -196 -124zM768 1614q0 -7 8 -20q293 -204 312 -204q28 0 28 28v12q-25 29 -312 212q-28 0 -36 -28z" />
    <glyph glyph-name="Otilde" unicode="&#xd5;" horiz-adv-x="1502" 
d="M675 1364q-201 0 -414 -152q-261 -227 -261 -541q0 -275 222 -502q210 -165 342 -165h4q17 11 17 17v13l-4 21q-92 21 -184 63q-337 206 -337 558q8 126 34 185q84 231 256 338q113 75 295 102v-5l21 5h26q281 0 487 -216q154 -200 154 -380v-63q0 -199 -167 -397
q-142 -130 -265 -169q-94 -12 -94 -46v-13q2 -9 22 -17q35 0 141 38q143 60 260 186q167 212 167 443q0 104 -30 207q-91 271 -325 401q-188 89 -303 89q0 -4 -4 -4l-9 4l-8 -4q0 4 -5 4h-17l-8 -4q0 4 -4 4l-9 -4v4zM515 1690h23q92 0 163 -82v-4q-10 -29 -39 -29
q-57 62 -133 62q-128 0 -181 -149l-15 -9q-33 0 -33 33q66 178 215 178zM1059 1670q33 0 33 -33q-67 -173 -219 -173h-5q-104 0 -172 77v19q10 19 29 19q73 -62 143 -62q115 0 167 129q0 7 24 24z" />
    <glyph glyph-name="Odieresis" unicode="&#xd6;" horiz-adv-x="1502" 
d="M675 1364q-201 0 -414 -152q-261 -227 -261 -541q0 -275 222 -502q210 -165 342 -165h4q17 11 17 17v13l-4 21q-92 21 -184 63q-337 206 -337 558q8 126 34 185q84 231 256 338q113 75 295 102v-5l21 5h26q281 0 487 -216q154 -200 154 -380v-63q0 -199 -167 -397
q-142 -130 -265 -169q-94 -12 -94 -46v-13q2 -9 22 -17q35 0 141 38q143 60 260 186q167 212 167 443q0 104 -30 207q-91 271 -325 401q-188 89 -303 89q0 -4 -4 -4l-9 4l-8 -4q0 4 -5 4h-17l-8 -4q0 4 -4 4l-9 -4v4zM360 1592v-12q15 -20 20 -20h20l8 4q16 48 32 48
q24 0 32 -24l-8 -28q-44 -6 -44 -20v-20q15 -20 20 -20h12q22 0 52 20l32 60v8q-29 84 -92 84q-84 -16 -84 -80zM860 1592v-12q15 -20 20 -20h20l8 4q16 48 32 48q24 0 32 -24l-8 -28q-44 -6 -44 -20v-20q15 -20 20 -20h12q22 0 52 20l32 60v8q-29 84 -92 84
q-84 -16 -84 -80z" />
    <glyph glyph-name="multiply" unicode="&#xd7;" horiz-adv-x="1014" 
d="M820 1056h20q36 -5 36 -36v-8q0 -28 -116 -132q-148 -160 -176 -160h-4q-40 5 -40 40v4q0 28 120 136q143 149 160 156zM172 1052q20 -3 424 -416q272 -263 272 -280v-28q-18 -28 -40 -28q-28 0 -144 128q-560 553 -560 564q-4 7 -4 16v4q0 38 52 40zM412 636
q40 -11 40 -40v-8q0 -28 -116 -132q-144 -156 -172 -156h-8q-36 13 -36 44q0 28 116 132q147 156 164 156q4 0 12 4z" />
    <glyph glyph-name="Oslash" unicode="&#xd8;" horiz-adv-x="1502" 
d="M1164 1181q-142 142 -400 185q-345 24 -567 -198q-195 -194 -198 -512q32 -265 125 -358l3 -3q20 -4 24 0l9 9l12 18q-50 80 -86 174q-92 384 157 633q95 84 155 107q222 104 420 58q133 -27 280 -136l-3 -4l18 -11l19 -19q198 -198 191 -497q-32 -250 -160 -377l-44 -45
q-141 -141 -399 -163q-192 9 -307 68q-75 58 -99 34l-9 -9q-5 -8 4 -28q24 -24 126 -72q144 -59 315 -53q268 32 432 195q73 74 125 168q127 256 54 513q-70 196 -152 278q-2 -3 -5 0l-4 9l-8 3q3 2 -1 6l-12 12l-9 3q3 3 0 5l-9 4zM1437 1456q20 -6 20 -28
q-161 -180 -188 -180q-20 6 -20 28q161 180 188 180zM1025 1056h16q6 0 16 -16v-4q0 -23 -104 -116q-918 -920 -928 -920h-4q-18 8 -20 16v8q0 23 104 116q242 247 920 916z" />
    <glyph glyph-name="Ugrave" unicode="&#xd9;" 
d="M316 1688h20q451 -259 456 -268q4 -7 4 -16v-4q-7 -14 -24 -20q-426 238 -472 276v12q8 18 16 20zM24 1356q-8 0 -24 -32v-832q16 -91 16 -104q33 -151 120 -248q132 -140 340 -140h12q29 0 32 32q-12 28 -36 28h-4q-40 0 -100 8q-316 88 -316 456v804q0 22 -16 28h-24z
M1064 1356q-20 -9 -20 -40v-852q0 -166 -112 -284q-89 -83 -244 -116q-96 0 -96 -36v-8q10 -20 32 -20q50 0 120 16q360 105 360 452v868q-15 20 -20 20h-20z" />
    <glyph glyph-name="Uacute" unicode="&#xda;" horiz-adv-x="1212" 
d="M760 1688q-451 -259 -456 -268q-4 -7 -4 -16v-4q7 -14 24 -20q426 238 472 276v12q-8 18 -16 20h-20zM24 1356q-8 0 -24 -32v-832q16 -91 16 -104q33 -151 120 -248q132 -140 340 -140h12q29 0 32 32q-12 28 -36 28h-4q-40 0 -100 8q-316 88 -316 456v804q0 22 -16 28
h-24zM1064 1356q-20 -9 -20 -40v-852q0 -166 -112 -284q-89 -83 -244 -116q-96 0 -96 -36v-8q10 -20 32 -20q50 0 120 16q360 105 360 452v868q-15 20 -20 20h-20z" />
    <glyph glyph-name="Ucircumflex" unicode="&#xdb;" horiz-adv-x="1212" 
d="M354 1582q-198 -120 -224 -160q3 -32 28 -32q22 0 224 144q196 119 196 144q-7 28 -28 28q-23 0 -196 -124zM618 1614q0 -7 8 -20q293 -204 312 -204q28 0 28 28v12q-25 29 -312 212q-28 0 -36 -28zM24 1356q-8 0 -24 -32v-832q16 -91 16 -104q33 -151 120 -248
q132 -140 340 -140h12q29 0 32 32q-12 28 -36 28h-4q-40 0 -100 8q-316 88 -316 456v804q0 22 -16 28h-24zM1064 1356q-20 -9 -20 -40v-852q0 -166 -112 -284q-89 -83 -244 -116q-96 0 -96 -36v-8q10 -20 32 -20q50 0 120 16q360 105 360 452v868q-15 20 -20 20h-20z" />
    <glyph glyph-name="Udieresis" unicode="&#xdc;" 
d="M210 1592v-12q15 -20 20 -20h20l8 4q16 48 32 48q24 0 32 -24l-8 -28q-44 -6 -44 -20v-20q15 -20 20 -20h12q22 0 52 20l32 60v8q-29 84 -92 84q-84 -16 -84 -80zM710 1592v-12q15 -20 20 -20h20l8 4q16 48 32 48q24 0 32 -24l-8 -28q-44 -6 -44 -20v-20q15 -20 20 -20
h12q22 0 52 20l32 60v8q-29 84 -92 84q-84 -16 -84 -80zM24 1356q-8 0 -24 -32v-832q16 -91 16 -104q33 -151 120 -248q132 -140 340 -140h12q29 0 32 32q-12 28 -36 28h-4q-40 0 -100 8q-316 88 -316 456v804q0 22 -16 28h-24zM1064 1356q-20 -9 -20 -40v-852
q0 -166 -112 -284q-89 -83 -244 -116q-96 0 -96 -36v-8q10 -20 32 -20q50 0 120 16q360 105 360 452v868q-15 20 -20 20h-20z" />
    <glyph glyph-name="Yacute" unicode="&#xdd;" horiz-adv-x="1212" 
d="M760 1688q-451 -259 -456 -268q-4 -7 -4 -16v-4q7 -14 24 -20q426 238 472 276v12q-8 18 -16 20h-20zM0 1332v-8l352 -448q168 -201 168 -220v-612q5 -44 28 -44q32 0 32 32v636l-4 24q-388 488 -400 508q-127 160 -144 160t-32 -28zM1060 1356q-44 -44 -240 -304
q-232 -290 -232 -304q3 -32 28 -32h12q45 45 300 384q172 206 172 228v8q-15 20 -20 20h-20z" />
    <glyph glyph-name="Thorn" unicode="&#xde;" horiz-adv-x="927" 
d="M28 1316q32 -3 32 -32v-1252q-2 -32 -32 -32q-24 0 -28 52h4l-4 8v244q0 4 4 4l-4 8v684q0 4 4 4l-4 8v244q0 4 4 4l-4 8q5 48 28 48zM132 1028h348q206 0 320 -168q40 -89 40 -172v-44q0 -252 -260 -328q-55 -12 -100 -12h-348q-32 2 -32 32q0 23 44 28h352
q284 36 284 284v36q0 179 -152 248q-61 36 -132 36h-352q-44 5 -44 28q3 32 32 32z" />
    <glyph glyph-name="germandbls" unicode="&#xdf;" horiz-adv-x="898" 
d="M380 1324q192 0 308 -156q52 -83 52 -176v-48q0 -235 -256 -316q-52 -16 -132 -16h-76q-44 0 -44 32q0 25 32 28h108q216 0 292 180q20 55 20 120q0 220 -228 284q-57 8 -80 8q-214 0 -296 -176q-16 -55 -20 -124q0 -8 4 -8q-4 -40 -4 -60v-1164q-2 -32 -32 -32
q-24 0 -28 52h4l-4 8v244q0 4 4 4l-4 8v128q0 4 4 4l-4 8v116q0 4 4 4l-4 8v68q0 4 4 4l-4 8v8q0 4 4 4l-4 8v12q0 4 4 4l-4 8v244q0 12 4 12l-4 20v252q0 298 256 372q77 16 124 16zM652 640q188 -61 188 -312v-20q0 -233 -224 -320q-69 -24 -136 -24h-348q-32 2 -32 32
q0 23 44 28h352q284 38 284 276v40q0 184 -136 244q-17 0 -24 28q13 28 32 28z" />
    <glyph glyph-name="agrave" unicode="&#xe0;" 
d="M560 1356q22 0 80 -168q132 -320 200 -504v-4q0 -32 -40 -32h-488q-248 -630 -260 -640q-13 -8 -20 -8q-12 0 -32 32q52 119 268 664q15 12 28 12h472l-244 620q12 28 36 28zM504 1244q17 -5 24 -20v-16q-148 -400 -168 -432l-12 -8h-20q-6 0 -16 16v12q0 23 168 440
q16 8 24 8zM836 608h8q34 0 68 -116q172 -403 188 -456v-16q0 -5 -20 -20h-4q-36 0 -76 132q-184 428 -184 452q6 17 20 24zM316 1688h20q451 -259 456 -268q4 -7 4 -16v-4q-7 -14 -24 -20q-426 238 -472 276v12q8 18 16 20z" />
    <glyph glyph-name="aacute" unicode="&#xe1;" 
d="M560 1356q22 0 80 -168q132 -320 200 -504v-4q0 -32 -40 -32h-488q-248 -630 -260 -640q-13 -8 -20 -8q-12 0 -32 32q52 119 268 664q15 12 28 12h472l-244 620q12 28 36 28zM504 1244q17 -5 24 -20v-16q-148 -400 -168 -432l-12 -8h-20q-6 0 -16 16v12q0 23 168 440
q16 8 24 8zM836 608h8q34 0 68 -116q172 -403 188 -456v-16q0 -5 -20 -20h-4q-36 0 -76 132q-184 428 -184 452q6 17 20 24zM300 1400v12q46 38 472 276q17 -5 24 -20v-4q0 -9 -4 -16q-5 -9 -456 -268h-20q-8 2 -16 20z" />
    <glyph glyph-name="acircumflex" unicode="&#xe2;" 
d="M560 1356q22 0 80 -168q132 -320 200 -504v-4q0 -32 -40 -32h-488q-248 -630 -260 -640q-13 -8 -20 -8q-12 0 -32 32q52 119 268 664q15 12 28 12h472l-244 620q12 28 36 28zM504 1244q17 -5 24 -20v-16q-148 -400 -168 -432l-12 -8h-20q-6 0 -16 16v12q0 23 168 440
q16 8 24 8zM836 608h8q34 0 68 -116q172 -403 188 -456v-16q0 -5 -20 -20h-4q-36 0 -76 132q-184 428 -184 452q6 17 20 24zM520 1696q21 0 28 -28q0 -25 -196 -144q-202 -144 -224 -144q-25 0 -28 32q26 40 224 160q173 124 196 124zM624 1632q287 -183 312 -212v-12
q0 -28 -28 -28q-19 0 -312 204q-8 13 -8 20q8 28 36 28z" />
    <glyph glyph-name="atilde" unicode="&#xe3;" 
d="M560 1356q22 0 80 -168q132 -320 200 -504v-4q0 -32 -40 -32h-488q-248 -630 -260 -640q-13 -8 -20 -8q-12 0 -32 32q52 119 268 664q15 12 28 12h472l-244 620q12 28 36 28zM504 1244q17 -5 24 -20v-16q-148 -400 -168 -432l-12 -8h-20q-6 0 -16 16v12q0 23 168 440
q16 8 24 8zM836 608h8q34 0 68 -116q172 -403 188 -456v-16q0 -5 -20 -20h-4q-36 0 -76 132q-184 428 -184 452q6 17 20 24zM385 1590h23q92 0 163 -82v-4q-10 -29 -39 -29q-57 62 -133 62q-128 0 -181 -149l-15 -9q-33 0 -33 33q66 178 215 178zM929 1570q33 0 33 -33
q-67 -173 -219 -173h-5q-104 0 -172 77v19q10 19 29 19q73 -62 143 -62q115 0 167 129q0 7 24 24z" />
    <glyph glyph-name="adieresis" unicode="&#xe4;" 
d="M560 1356q22 0 80 -168q132 -320 200 -504v-4q0 -32 -40 -32h-488q-248 -630 -260 -640q-13 -8 -20 -8q-12 0 -32 32q52 119 268 664q15 12 28 12h472l-244 620q12 28 36 28zM504 1244q17 -5 24 -20v-16q-148 -400 -168 -432l-12 -8h-20q-6 0 -16 16v12q0 23 168 440
q16 8 24 8zM836 608h8q34 0 68 -116q172 -403 188 -456v-16q0 -5 -20 -20h-4q-36 0 -76 132q-184 428 -184 452q6 17 20 24zM200 1592v-12q15 -20 20 -20h20l8 4q16 48 32 48q24 0 32 -24l-8 -28q-44 -6 -44 -20v-20q15 -20 20 -20h12q22 0 52 20l32 60v8q-29 84 -92 84
q-84 -16 -84 -80zM700 1592v-12q15 -20 20 -20h20l8 4q16 48 32 48q24 0 32 -24l-8 -28q-44 -6 -44 -20v-20q15 -20 20 -20h12q22 0 52 20l32 60v8q-29 84 -92 84q-84 -16 -84 -80z" />
    <glyph glyph-name="aring" unicode="&#xe5;" 
d="M560 1356q22 0 80 -168q132 -320 200 -504v-4q0 -32 -40 -32h-488q-248 -630 -260 -640q-13 -8 -20 -8q-12 0 -32 32q52 119 268 664q15 12 28 12h472l-244 620q12 28 36 28zM504 1244q17 -5 24 -20v-16q-148 -400 -168 -432l-12 -8h-20q-6 0 -16 16v12q0 23 168 440
q16 8 24 8zM836 608h8q34 0 68 -116q172 -403 188 -456v-16q0 -5 -20 -20h-4q-36 0 -76 132q-184 428 -184 452q6 17 20 24zM562 1686q111 0 152 -128q4 -15 4 -36v-4q0 -105 -112 -148h-8q-5 0 -20 20q0 21 60 60q24 28 24 68v24q-26 92 -116 92q-104 -24 -104 -120
q0 -53 72 -96q6 0 12 -12v-20q-8 -16 -24 -16q-55 0 -104 100q-8 26 -8 36v24q0 114 136 156h36z" />
    <glyph glyph-name="ae" unicode="&#xe6;" horiz-adv-x="998" 
d="M652 1368h864q32 -14 32 -36q0 -25 -32 -28h-864q-32 0 -32 32q0 17 32 32zM944 716h840q31 0 44 -24v-4q0 -36 -56 -36h-816q-56 0 -56 36v4q13 24 44 24zM1186 64h856q36 0 36 -32t-48 -32h-832q-48 0 -48 36q5 28 36 28zM524 1328l244 -620h-472q-13 0 -28 -12
q-216 -545 -268 -664q20 -32 32 -32q7 0 20 8q12 10 260 640h488q40 0 40 32v4q-68 183 -200 504q-58 168 -80 168q-24 0 -36 -28zM480 1236q-168 -417 -168 -440v-12q10 -16 16 -16h20l12 8q20 32 168 432v16q-7 15 -24 20q-8 0 -24 -8zM836 608q-14 -7 -20 -24
q0 -24 184 -452q40 -132 76 -132h4q20 15 20 20v16q-16 53 -188 456q-34 116 -68 116h-8z" />
    <glyph glyph-name="ccedilla" unicode="&#xe7;" horiz-adv-x="1098" 
d="M598 -24h16q16 -6 16 -28v-84q0 -21 -16 -28h-16q-6 0 -16 16v108q0 6 16 16zM674 -120h8q95 0 112 -124q0 -99 -120 -116h-20q-84 16 -84 56q8 18 16 20h8q8 0 56 -28h24q68 8 68 64v16q0 59 -84 68q-12 16 -12 24q6 20 28 20zM628 1304q-119 0 -296 -84
q-332 -216 -332 -564v-12q0 -144 72 -292q209 -352 576 -352h8q81 0 136 16q224 63 224 112v8q-15 20 -20 20h-4q-168 -100 -324 -100h-40q-135 0 -276 80q-296 195 -296 512q0 141 72 284q192 312 516 312h16q162 0 332 -100q32 4 32 28l-8 20q-192 112 -340 112h-48z" />
    <glyph glyph-name="egrave" unicode="&#xe8;" horiz-adv-x="998" 
d="M32 1368h864q32 -14 32 -36q0 -25 -32 -28h-864q-32 0 -32 32q0 17 32 32zM44 716h840q31 0 44 -24v-4q0 -36 -56 -36h-816q-56 0 -56 36v4q13 24 44 24zM36 64h856q36 0 36 -32t-48 -32h-832q-48 0 -48 36q5 28 36 28zM266 1698h20q451 -259 456 -268q4 -7 4 -16v-4
q-7 -14 -24 -20q-426 238 -472 276v12q8 18 16 20z" />
    <glyph glyph-name="eacute" unicode="&#xe9;" horiz-adv-x="1151" 
d="M32 1368h864q32 -14 32 -36q0 -25 -32 -28h-864q-32 0 -32 32q0 17 32 32zM250 1410v12q46 38 472 276q17 -6 24 -20v-4q0 -9 -4 -16q-5 -9 -456 -268h-20q-8 2 -16 20zM36 64h856q36 0 36 -32t-48 -32h-832q-48 0 -48 36q5 28 36 28zM44 716h840q31 0 44 -24v-4
q0 -36 -56 -36h-816q-56 0 -56 36v4q13 24 44 24z" />
    <glyph glyph-name="ecircumflex" unicode="&#xea;" horiz-adv-x="998" 
d="M32 1368h864q32 -14 32 -36q0 -25 -32 -28h-864q-32 0 -32 32q0 17 32 32zM44 716h840q31 0 44 -24v-4q0 -36 -56 -36h-816q-56 0 -56 36v4q13 24 44 24zM36 64h856q36 0 36 -32t-48 -32h-832q-48 0 -48 36q5 28 36 28zM460 1706q21 0 28 -28q0 -25 -196 -144
q-202 -144 -224 -144q-25 0 -28 32q26 40 224 160q173 124 196 124zM564 1642q287 -183 312 -212v-12q0 -28 -28 -28q-19 0 -312 204q-8 13 -8 20q8 28 36 28z" />
    <glyph glyph-name="edieresis" unicode="&#xeb;" horiz-adv-x="998" 
d="M32 1368h864q32 -14 32 -36q0 -25 -32 -28h-864q-32 0 -32 32q0 17 32 32zM44 716h840q31 0 44 -24v-4q0 -36 -56 -36h-816q-56 0 -56 36v4q13 24 44 24zM36 64h856q36 0 36 -32t-48 -32h-832q-48 0 -48 36q5 28 36 28zM160 1592v-12q15 -20 20 -20h20l8 4q16 48 32 48
q24 0 32 -24l-8 -28q-44 -6 -44 -20v-20q15 -20 20 -20h12q22 0 52 20l32 60v8q-29 84 -92 84q-84 -16 -84 -80zM660 1592v-12q15 -20 20 -20h20l8 4q16 48 32 48q24 0 32 -24l-8 -28q-44 -6 -44 -20v-20q15 -20 20 -20h12q22 0 52 20l32 60v8q-29 84 -92 84
q-84 -16 -84 -80z" />
    <glyph glyph-name="igrave" unicode="&#xec;" horiz-adv-x="143" 
d="M24 1352h20q20 -10 20 -32v-1288q0 -22 -20 -32h-20q-7 0 -24 28v1288q0 22 24 36zM-204 1698h20q451 -259 456 -268q4 -7 4 -16v-4q-7 -14 -24 -20q-426 238 -472 276v12q8 18 16 20z" />
    <glyph glyph-name="iacute" unicode="&#xed;" horiz-adv-x="143" 
d="M24 1352h20q20 -10 20 -32v-1288q0 -22 -20 -32h-20q-7 0 -24 28v1288q0 22 24 36zM-220 1410v12q46 38 472 276q17 -5 24 -20v-4q0 -9 -4 -16q-5 -9 -456 -268h-20q-8 2 -16 20z" />
    <glyph glyph-name="icircumflex" unicode="&#xee;" horiz-adv-x="143" 
d="M24 1352h20q20 -10 20 -32v-1288q0 -22 -20 -32h-20q-7 0 -24 28v1288q0 22 24 36zM-166 1582q-198 -120 -224 -160q3 -32 28 -32q22 0 224 144q196 119 196 144q-7 28 -28 28q-23 0 -196 -124zM98 1614q0 -7 8 -20q293 -204 312 -204q28 0 28 28v12q-25 29 -312 212
q-28 0 -36 -28z" />
    <glyph glyph-name="idieresis" unicode="&#xef;" horiz-adv-x="200" 
d="M24 1352h20q20 -10 20 -32v-1288q0 -22 -20 -32h-20q-7 0 -24 28v1288q0 22 24 36zM-300 1592v-12q15 -20 20 -20h20l8 4q16 48 32 48q24 0 32 -24l-8 -28q-44 -6 -44 -20v-20q15 -20 20 -20h12q22 0 52 20l32 60v8q-29 84 -92 84q-84 -16 -84 -80zM200 1592v-12
q15 -20 20 -20h20l8 4q16 48 32 48q24 0 32 -24l-8 -28q-44 -6 -44 -20v-20q15 -20 20 -20h12q22 0 52 20l32 60v8q-29 84 -92 84q-84 -16 -84 -80z" />
    <glyph glyph-name="eth" unicode="&#xf0;" horiz-adv-x="936" 
d="M38 1360h8q24 -9 24 -56v-416q0 -144 -20 -144q-4 0 -12 -4q-28 0 -32 44v540q0 36 32 36zM146 1360q334 0 560 -240q140 -177 140 -424v-32q0 -468 -452 -624q-121 -40 -252 -40q-36 6 -36 32q7 18 24 28h20q335 0 540 256q96 154 96 352v24q0 428 -408 572
q-134 36 -232 36h-8q-32 0 -32 32q10 28 40 28zM-250 708h568q28 0 28 -28v-12q-9 -20 -40 -20h-540q-36 0 -36 32v8q0 5 20 20zM38 620q28 0 28 -52q4 -24 4 -104v-404q-3 -56 -20 -56h-24q-20 9 -20 40v532q0 44 32 44z" />
    <glyph glyph-name="ntilde" unicode="&#xf1;" 
d="M32 1360q-21 -8 -32 -36v-1288q15 -32 32 -36q22 0 32 20v1224l888 -1108q97 -131 120 -136q19 0 32 28q0 9 -4 16l-932 1168q-102 136 -132 148h-4zM1044 1320v-1116q0 -40 32 -40h8q20 15 20 20v1140q0 24 -24 32q-31 0 -36 -36zM385 1590h23q92 0 163 -82v-4
q-10 -29 -39 -29q-57 62 -133 62q-128 0 -181 -149l-15 -9q-33 0 -33 33q66 178 215 178zM929 1570q33 0 33 -33q-67 -173 -219 -173h-5q-104 0 -172 77v19q10 19 29 19q73 -62 143 -62q115 0 167 129q0 7 24 24z" />
    <glyph glyph-name="ograve" unicode="&#xf2;" horiz-adv-x="1402" 
d="M675 1364v-4l9 4q4 0 4 -4l8 4h17q5 0 5 -4l8 4l9 -4q4 0 4 4q115 0 303 -89q234 -130 325 -401q30 -103 30 -207q0 -231 -167 -443q-117 -126 -260 -186q-106 -38 -141 -38q-20 8 -22 17v13q0 34 94 46q123 39 265 169q167 198 167 397v63q0 180 -154 380
q-206 216 -487 216h-26l-21 -5v5q-182 -27 -295 -102q-172 -107 -256 -338q-26 -59 -34 -185q0 -352 337 -558q92 -42 184 -63l4 -21v-13q0 -6 -17 -17h-4q-132 0 -342 165q-222 227 -222 502q0 314 261 541q213 152 414 152zM466 1688h20q451 -259 456 -268q4 -7 4 -16v-4
q-7 -14 -24 -20q-426 238 -472 276v12q8 18 16 20z" />
    <glyph glyph-name="oacute" unicode="&#xf3;" horiz-adv-x="1614" 
d="M675 1364q-201 0 -414 -152q-261 -227 -261 -541q0 -275 222 -502q210 -165 342 -165h4q17 11 17 17v13l-4 21q-92 21 -184 63q-337 206 -337 558q8 126 34 185q84 231 256 338q113 75 295 102v-5l21 5h26q281 0 487 -216q154 -200 154 -380v-63q0 -199 -167 -397
q-142 -130 -265 -169q-94 -12 -94 -46v-13q2 -9 22 -17q35 0 141 38q143 60 260 186q167 212 167 443q0 104 -30 207q-91 271 -325 401q-188 89 -303 89q0 -4 -4 -4l-9 4l-8 -4q0 4 -5 4h-17l-8 -4q0 4 -4 4l-9 -4v4zM910 1688q-451 -259 -456 -268q-4 -7 -4 -16v-4
q7 -14 24 -20q426 238 472 276v12q-8 18 -16 20h-20z" />
    <glyph glyph-name="ocircumflex" unicode="&#xf4;" horiz-adv-x="1614" 
d="M675 1364q-201 0 -414 -152q-261 -227 -261 -541q0 -275 222 -502q210 -165 342 -165h4q17 11 17 17v13l-4 21q-92 21 -184 63q-337 206 -337 558q8 126 34 185q84 231 256 338q113 75 295 102v-5l21 5h26q281 0 487 -216q154 -200 154 -380v-63q0 -199 -167 -397
q-142 -130 -265 -169q-94 -12 -94 -46v-13q2 -9 22 -17q35 0 141 38q143 60 260 186q167 212 167 443q0 104 -30 207q-91 271 -325 401q-188 89 -303 89q0 -4 -4 -4l-9 4l-8 -4q0 4 -5 4h-17l-8 -4q0 4 -4 4l-9 -4v4zM504 1582q-198 -120 -224 -160q3 -32 28 -32
q22 0 224 144q196 119 196 144q-7 28 -28 28q-23 0 -196 -124zM768 1614q0 -7 8 -20q293 -204 312 -204q28 0 28 28v12q-25 29 -312 212q-28 0 -36 -28z" />
    <glyph glyph-name="otilde" unicode="&#xf5;" horiz-adv-x="1502" 
d="M675 1364q-201 0 -414 -152q-261 -227 -261 -541q0 -275 222 -502q210 -165 342 -165h4q17 11 17 17v13l-4 21q-92 21 -184 63q-337 206 -337 558q8 126 34 185q84 231 256 338q113 75 295 102v-5l21 5h26q281 0 487 -216q154 -200 154 -380v-63q0 -199 -167 -397
q-142 -130 -265 -169q-94 -12 -94 -46v-13q2 -9 22 -17q35 0 141 38q143 60 260 186q167 212 167 443q0 104 -30 207q-91 271 -325 401q-188 89 -303 89q0 -4 -4 -4l-9 4l-8 -4q0 4 -5 4h-17l-8 -4q0 4 -4 4l-9 -4v4zM515 1690h23q92 0 163 -82v-4q-10 -29 -39 -29
q-57 62 -133 62q-128 0 -181 -149l-15 -9q-33 0 -33 33q66 178 215 178zM1059 1670q33 0 33 -33q-67 -173 -219 -173h-5q-104 0 -172 77v19q10 19 29 19q73 -62 143 -62q115 0 167 129q0 7 24 24z" />
    <glyph glyph-name="odieresis" unicode="&#xf6;" horiz-adv-x="1502" 
d="M675 1364q-201 0 -414 -152q-261 -227 -261 -541q0 -275 222 -502q210 -165 342 -165h4q17 11 17 17v13l-4 21q-92 21 -184 63q-337 206 -337 558q8 126 34 185q84 231 256 338q113 75 295 102v-5l21 5h26q281 0 487 -216q154 -200 154 -380v-63q0 -199 -167 -397
q-142 -130 -265 -169q-94 -12 -94 -46v-13q2 -9 22 -17q35 0 141 38q143 60 260 186q167 212 167 443q0 104 -30 207q-91 271 -325 401q-188 89 -303 89q0 -4 -4 -4l-9 4l-8 -4q0 4 -5 4h-17l-8 -4q0 4 -4 4l-9 -4v4zM360 1592v-12q15 -20 20 -20h20l8 4q16 48 32 48
q24 0 32 -24l-8 -28q-44 -6 -44 -20v-20q15 -20 20 -20h12q22 0 52 20l32 60v8q-29 84 -92 84q-84 -16 -84 -80zM860 1592v-12q15 -20 20 -20h20l8 4q16 48 32 48q24 0 32 -24l-8 -28q-44 -6 -44 -20v-20q15 -20 20 -20h12q22 0 52 20l32 60v8q-29 84 -92 84
q-84 -16 -84 -80z" />
    <glyph glyph-name="divide" unicode="&#xf7;" horiz-adv-x="1265" 
d="M108 710h1040q28 -14 28 -36q-12 -28 -36 -28h-1028q-23 0 -36 28v8q9 15 32 28zM643 402q63 0 92 -84v-8l-32 -60q-30 -20 -52 -20h-12q-5 0 -20 20v20q0 14 44 20l8 28q-8 24 -32 24q-16 0 -32 -48l-8 -4h-20q-5 0 -20 20v12q0 64 84 80zM643 1106q63 0 92 -84v-8
l-32 -60q-30 -20 -52 -20h-12q-5 0 -20 20v20q0 14 44 20l8 28q-8 24 -32 24q-16 0 -32 -48l-8 -4h-20q-5 0 -20 20v12q0 64 84 80z" />
    <glyph glyph-name="oslash" unicode="&#xf8;" horiz-adv-x="1502" 
d="M1164 1181q-142 142 -400 185q-345 24 -567 -198q-195 -194 -198 -512q32 -265 125 -358l3 -3q20 -4 24 0l9 9l12 18q-50 80 -86 174q-92 384 157 633q95 84 155 107q222 104 420 58q133 -27 280 -136l-3 -4l18 -11l19 -19q198 -198 191 -497q-32 -250 -160 -377l-44 -45
q-141 -141 -399 -163q-192 9 -307 68q-75 58 -99 34l-9 -9q-5 -8 4 -28q24 -24 126 -72q144 -59 315 -53q268 32 432 195q73 74 125 168q127 256 54 513q-70 196 -152 278q-2 -3 -5 0l-4 9l-8 3q3 2 -1 6l-12 12l-9 3q3 3 0 5l-9 4zM1437 1456q20 -6 20 -28
q-161 -180 -188 -180q-20 6 -20 28q161 180 188 180zM1025 1056h16q6 0 16 -16v-4q0 -23 -104 -116q-918 -920 -928 -920h-4q-18 8 -20 16v8q0 23 104 116q242 247 920 916z" />
    <glyph glyph-name="ugrave" unicode="&#xf9;" 
d="M316 1688h20q451 -259 456 -268q4 -7 4 -16v-4q-7 -14 -24 -20q-426 238 -472 276v12q8 18 16 20zM24 1356q-8 0 -24 -32v-832q16 -91 16 -104q33 -151 120 -248q132 -140 340 -140h12q29 0 32 32q-12 28 -36 28h-4q-40 0 -100 8q-316 88 -316 456v804q0 22 -16 28h-24z
M1064 1356q-20 -9 -20 -40v-852q0 -166 -112 -284q-89 -83 -244 -116q-96 0 -96 -36v-8q10 -20 32 -20q50 0 120 16q360 105 360 452v868q-15 20 -20 20h-20z" />
    <glyph glyph-name="uacute" unicode="&#xfa;" horiz-adv-x="1212" 
d="M760 1688q-451 -259 -456 -268q-4 -7 -4 -16v-4q7 -14 24 -20q426 238 472 276v12q-8 18 -16 20h-20zM24 1356q-8 0 -24 -32v-832q16 -91 16 -104q33 -151 120 -248q132 -140 340 -140h12q29 0 32 32q-12 28 -36 28h-4q-40 0 -100 8q-316 88 -316 456v804q0 22 -16 28
h-24zM1064 1356q-20 -9 -20 -40v-852q0 -166 -112 -284q-89 -83 -244 -116q-96 0 -96 -36v-8q10 -20 32 -20q50 0 120 16q360 105 360 452v868q-15 20 -20 20h-20z" />
    <glyph glyph-name="ucircumflex" unicode="&#xfb;" horiz-adv-x="1212" 
d="M354 1582q-198 -120 -224 -160q3 -32 28 -32q22 0 224 144q196 119 196 144q-7 28 -28 28q-23 0 -196 -124zM618 1614q0 -7 8 -20q293 -204 312 -204q28 0 28 28v12q-25 29 -312 212q-28 0 -36 -28zM24 1356q-8 0 -24 -32v-832q16 -91 16 -104q33 -151 120 -248
q132 -140 340 -140h12q29 0 32 32q-12 28 -36 28h-4q-40 0 -100 8q-316 88 -316 456v804q0 22 -16 28h-24zM1064 1356q-20 -9 -20 -40v-852q0 -166 -112 -284q-89 -83 -244 -116q-96 0 -96 -36v-8q10 -20 32 -20q50 0 120 16q360 105 360 452v868q-15 20 -20 20h-20z" />
    <glyph glyph-name="udieresis" unicode="&#xfc;" 
d="M210 1592v-12q15 -20 20 -20h20l8 4q16 48 32 48q24 0 32 -24l-8 -28q-44 -6 -44 -20v-20q15 -20 20 -20h12q22 0 52 20l32 60v8q-29 84 -92 84q-84 -16 -84 -80zM710 1592v-12q15 -20 20 -20h20l8 4q16 48 32 48q24 0 32 -24l-8 -28q-44 -6 -44 -20v-20q15 -20 20 -20
h12q22 0 52 20l32 60v8q-29 84 -92 84q-84 -16 -84 -80zM24 1356q-8 0 -24 -32v-832q16 -91 16 -104q33 -151 120 -248q132 -140 340 -140h12q29 0 32 32q-12 28 -36 28h-4q-40 0 -100 8q-316 88 -316 456v804q0 22 -16 28h-24zM1064 1356q-20 -9 -20 -40v-852
q0 -166 -112 -284q-89 -83 -244 -116q-96 0 -96 -36v-8q10 -20 32 -20q50 0 120 16q360 105 360 452v868q-15 20 -20 20h-20z" />
    <glyph glyph-name="yacute" unicode="&#xfd;" horiz-adv-x="1212" 
d="M760 1688q-451 -259 -456 -268q-4 -7 -4 -16v-4q7 -14 24 -20q426 238 472 276v12q-8 18 -16 20h-20zM0 1332v-8l352 -448q168 -201 168 -220v-612q5 -44 28 -44q32 0 32 32v636l-4 24q-388 488 -400 508q-127 160 -144 160t-32 -28zM1060 1356q-44 -44 -240 -304
q-232 -290 -232 -304q3 -32 28 -32h12q45 45 300 384q172 206 172 228v8q-15 20 -20 20h-20z" />
    <glyph glyph-name="thorn" unicode="&#xfe;" horiz-adv-x="927" 
d="M28 1316q32 -3 32 -32v-1252q-2 -32 -32 -32q-24 0 -28 52h4l-4 8v244q0 4 4 4l-4 8v684q0 4 4 4l-4 8v244q0 4 4 4l-4 8q5 48 28 48zM132 1028h348q206 0 320 -168q40 -89 40 -172v-44q0 -252 -260 -328q-55 -12 -100 -12h-348q-32 2 -32 32q0 23 44 28h352
q284 36 284 284v36q0 179 -152 248q-61 36 -132 36h-352q-44 5 -44 28q3 32 32 32z" />
    <glyph glyph-name="ydieresis" unicode="&#xff;" horiz-adv-x="1212" 
d="M0 1332v-8l352 -448q168 -201 168 -220v-612q5 -44 28 -44q32 0 32 32v636l-4 24q-388 488 -400 508q-127 160 -144 160t-32 -28zM1060 1356q-44 -44 -240 -304q-232 -290 -232 -304q3 -32 28 -32h12q45 45 300 384q172 206 172 228v8q-15 20 -20 20h-20zM210 1592v-12
q15 -20 20 -20h20l8 4q16 48 32 48q24 0 32 -24l-8 -28q-44 -6 -44 -20v-20q15 -20 20 -20h12q22 0 52 20l32 60v8q-29 84 -92 84q-84 -16 -84 -80zM710 1592v-12q15 -20 20 -20h20l8 4q16 48 32 48q24 0 32 -24l-8 -28q-44 -6 -44 -20v-20q15 -20 20 -20h12q22 0 52 20
l32 60v8q-29 84 -92 84q-84 -16 -84 -80z" />
    <glyph glyph-name="dotlessi" unicode="&#x131;" horiz-adv-x="514" 
d="M328 223q0 -173 100 -173h46v-50h-442v50h46q100 0 100 173v432q0 77 -111 77h-48v44q222 69 261 182h48v-735z" />
    <glyph glyph-name="circumflex" unicode="&#x2c6;" horiz-adv-x="1024" 
d="M520 1696q21 0 28 -28q0 -25 -196 -144q-202 -144 -224 -144q-25 0 -28 32q26 40 224 160q173 124 196 124zM624 1632q287 -183 312 -212v-12q0 -28 -28 -28q-19 0 -312 204q-8 13 -8 20q8 28 36 28z" />
    <glyph glyph-name="caron" unicode="&#x2c7;" horiz-adv-x="1024" 
d="M221 1434h58l233 -214l233 214h58l-232 -356h-118z" />
    <glyph glyph-name="uni02C9" unicode="&#x2c9;" horiz-adv-x="1024" 
d="M-14 1364h1024q36 0 36 -32t-60 -32h-32q-4 0 -4 4l-8 -4h-16q-4 0 -4 4l-8 -4q-4 0 -4 4l-8 -4h-28q-9 0 -16 4q-7 -4 -16 -4t-16 4q-22 -4 -36 -4h-44q-4 0 -4 4l-8 -4h-144q-4 0 -4 4l-8 -4h-124q-4 0 -4 4l-8 -4h-8q-4 0 -4 4l-8 -4h-92q-4 0 -4 4l-8 -4h-12
q-4 0 -4 4l-8 -4h-12q-4 0 -4 4l-8 -4h-52q-4 0 -4 4l-8 -4h-196q-60 0 -60 36q12 28 36 28z" />
    <glyph glyph-name="breve" unicode="&#x2d8;" horiz-adv-x="1024" 
d="M112 1408h20q12 0 32 -96q94 -160 312 -160h64q250 0 328 180q12 76 28 76h12q20 -12 20 -28q0 -98 -116 -200q-116 -80 -304 -80q-302 0 -396 212q-12 45 -12 72q3 24 12 24z" />
    <glyph glyph-name="dotaccent" unicode="&#x2d9;" horiz-adv-x="1024" 
d="M504 1386q63 0 92 -84v-8l-32 -60q-30 -20 -52 -20h-12q-5 0 -20 20v20q0 14 44 20l8 28q-8 24 -32 24q-16 0 -32 -48l-8 -4h-20q-5 0 -20 20v12q0 64 84 80z" />
    <glyph glyph-name="ring" unicode="&#x2da;" horiz-adv-x="1024" 
d="M512 1605q-32 0 -84 -20q-152 -86 -152 -212v-48q0 -54 36 -116q46 -78 152 -112q16 0 28 20v12l-4 20q-152 61 -152 184v44q48 168 196 168h20q180 -41 180 -196v-8q0 -77 -60 -140q-80 -51 -80 -56v-12q0 -28 28 -28q172 71 172 240q0 45 -12 80q-76 180 -232 180h-36z
" />
    <glyph glyph-name="ogonek" unicode="&#x2db;" horiz-adv-x="1024" 
d="M640 0q-71 -62 -110.5 -119.5t-39.5 -112.5q0 -47 27 -75t73 -28q40 0 69.5 15.5t49.5 48.5l28 -16q-36 -63 -90.5 -97t-119.5 -34q-70 0 -114 35.5t-44 90.5q0 76 60.5 156.5t161.5 135.5h49z" />
    <glyph glyph-name="tilde" unicode="&#x2dc;" horiz-adv-x="1024" 
d="M910 1636h20q27 0 44 -132q0 -173 -192 -252q-48 -8 -72 -8q-104 0 -180 76q-4 7 -4 16v12q0 6 16 16h20q64 -64 148 -64h4q122 0 184 120q20 43 20 88q0 38 -28 104q6 17 20 24zM294 1560h8q139 0 220 -140v-12q-37 -16 -44 -16h-4q-61 112 -168 112h-20
q-141 0 -196 -164l-4 -40l12 -84q-22 -16 -28 -16q-40 11 -40 100q0 173 192 252q40 8 72 8z" />
    <glyph glyph-name="hungarumlaut" unicode="&#x2dd;" horiz-adv-x="1024" 
d="M217 1079l144 273q24 44 45.5 63t46.5 19q28 0 48 -20t20 -47q0 -16 -10.5 -35t-30.5 -41l-205 -212h-58zM502 1079l144 273q24 44 45.5 63t46.5 19q28 0 48 -20t20 -47q0 -16 -10.5 -35t-30.5 -41l-205 -212h-58z" />
    <glyph glyph-name="endash" unicode="&#x2013;" horiz-adv-x="1265" 
d="M108 710h1040q28 -14 28 -36q-12 -28 -36 -28h-1028q-23 0 -36 28v8q9 15 32 28z" />
    <glyph glyph-name="emdash" unicode="&#x2014;" horiz-adv-x="1265" 
d="M108 710h1040q28 -14 28 -36q-12 -28 -36 -28h-1028q-23 0 -36 28v8q9 15 32 28z" />
    <glyph glyph-name="quoteleft" unicode="&#x2018;" horiz-adv-x="200" 
d="M36 1520q28 0 28 -28v-272q-10 -20 -32 -20h-4q-17 11 -28 36v248q10 36 36 36z" />
    <glyph glyph-name="quoteright" unicode="&#x2019;" horiz-adv-x="200" 
d="M36 1520q28 0 28 -28v-272q-10 -20 -32 -20h-4q-17 11 -28 36v248q10 36 36 36z" />
    <glyph glyph-name="quotesinglbase" unicode="&#x201a;" horiz-adv-x="200" 
d="M36 119q28 0 28 -28v-272q-10 -20 -32 -20h-4q-17 11 -28 36v248q10 36 36 36z" />
    <glyph glyph-name="quotedblleft" unicode="&#x201c;" horiz-adv-x="399" 
d="M36 1520q28 0 28 -28v-272q-10 -20 -32 -20h-4q-17 11 -28 36v248q10 36 36 36zM124 1520h20q7 0 24 -28v-132q-17 -28 -24 -28h-20q-5 0 -20 20v148q0 5 20 20z" />
    <glyph glyph-name="quotedblright" unicode="&#x201d;" horiz-adv-x="399" 
d="M168 1484v-248q-11 -25 -28 -36h-4q-22 0 -32 20v272q0 28 28 28q26 0 36 -36zM64 1500v-148q-15 -20 -20 -20h-20q-7 0 -24 28v132q17 28 24 28h20q20 -15 20 -20z" />
    <glyph glyph-name="quotedblbase" unicode="&#x201e;" horiz-adv-x="399" 
d="M168 144v-248q-11 -25 -28 -36h-4q-22 0 -32 20v272q0 28 28 28q26 0 36 -36zM64 160v-148q-15 -20 -20 -20h-20q-7 0 -24 28v132q17 28 24 28h20q20 -15 20 -20z" />
    <glyph glyph-name="dagger" unicode="&#x2020;" 
d="M548 1316h8q5 0 20 -20v-1564q0 -24 -28 -32q-32 0 -32 56v1516q0 44 32 44zM44 1060h392q44 -5 44 -28q-3 -32 -32 -32h-428q-20 10 -20 32q0 23 44 28zM680 1060h388q31 0 44 -24v-16q0 -5 -20 -20h-428q-28 0 -28 28q0 32 44 32z" />
    <glyph glyph-name="daggerdbl" unicode="&#x2021;" 
d="M548 1316h8q5 0 20 -20v-1564q0 -24 -28 -32q-32 0 -32 56v1516q0 44 32 44zM44 1060h392q44 -5 44 -28q-3 -32 -32 -32h-428q-20 10 -20 32q0 23 44 28zM680 1060h388q31 0 44 -24v-16q0 -5 -20 -20h-428q-28 0 -28 28q0 32 44 32zM44 60h392q44 -5 44 -28
q-3 -32 -32 -32h-428q-20 10 -20 32q0 23 44 28zM680 60h388q31 0 44 -24v-16q0 -5 -20 -20h-428q-28 0 -28 28q0 32 44 32z" />
    <glyph glyph-name="bullet" unicode="&#x2022;" horiz-adv-x="1024" 
d="M512 1005q-32 0 -84 -20q-152 -86 -152 -212v-48q0 -54 36 -116q46 -78 152 -112q16 0 28 20v12l-4 20q-152 61 -152 184v44q48 168 196 168h20q180 -41 180 -196v-8q0 -77 -60 -140q-80 -51 -80 -56v-12q0 -28 28 -28q172 71 172 240q0 45 -12 80q-76 180 -232 180h-36z
" />
    <glyph glyph-name="ellipsis" unicode="&#x2026;" horiz-adv-x="2048" 
d="M304 86q63 0 92 -84v-8l-32 -60q-30 -20 -52 -20h-12q-5 0 -20 20v20q0 14 44 20l8 28q-8 24 -32 24q-16 0 -32 -48l-8 -4h-20q-5 0 -20 20v12q0 64 84 80zM1004 86q63 0 92 -84v-8l-32 -60q-30 -20 -52 -20h-12q-5 0 -20 20v20q0 14 44 20l8 28q-8 24 -32 24
q-16 0 -32 -48l-8 -4h-20q-5 0 -20 20v12q0 64 84 80zM1704 86q63 0 92 -84v-8l-32 -60q-30 -20 -52 -20h-12q-5 0 -20 20v20q0 14 44 20l8 28q-8 24 -32 24q-16 0 -32 -48l-8 -4h-20q-5 0 -20 20v12q0 64 84 80z" />
    <glyph glyph-name="guilsinglleft" unicode="&#x2039;" horiz-adv-x="631" 
d="M524 876v-4q0 -17 -280 -288q-93 -104 -116 -104h-12q-16 10 -16 16v16q0 17 280 288q93 104 116 104q28 -15 28 -28zM216 452q312 -303 312 -320q0 -24 -24 -32h-8q-17 0 -340 332v12q0 28 28 28q22 0 32 -20z" />
    <glyph glyph-name="guilsinglright" unicode="&#x203a;" horiz-adv-x="631" 
d="M132 904q23 0 116 -104q280 -271 280 -288v-16q0 -6 -16 -16h-12q-23 0 -116 104q-280 271 -280 288v4q0 13 28 28zM444 472q28 0 28 -28v-12q-323 -332 -340 -332h-8q-24 8 -24 32q0 17 312 320q10 20 32 20z" />
    <glyph glyph-name="fraction" unicode="&#x2044;" horiz-adv-x="342" 
d="M-342 -29l940 1461h84l-938 -1461h-86z" />
    <glyph glyph-name="fraction" unicode="&#x2215;" horiz-adv-x="342" 
d="M-342 -29l940 1461h84l-938 -1461h-86z" />
    <glyph glyph-name="franc" unicode="&#x20a3;" horiz-adv-x="1014" 
d="M247 357h-194v60h194v732q0 235 -103 235h-96v50h915l103 -231h-49q-59 182 -190 182l-316 -1q-102 0 -102 -235v-352h361q100 0 100 63v58h50v-342h-50v60q0 62 -100 62h-361v-281h194v-60h-194v-72q0 -235 102 -235h97v-50h-560v50h96q103 0 103 235v72z" />
    <glyph glyph-name="lira" unicode="&#x20a4;" horiz-adv-x="1014" 
d="M748 1347q-72 31 -160 31h-2q-100 0 -190 -101q-84 -93 -84 -241q0 -15 1 -30q0 -106 33 -213h380v-60h-360q12 -30 26 -60h352v-60h-321q35 -63 35 -138q0 -161 -162 -375h402q130 0 189 132l49 -1l-103 -231h-719l1 50q187 238 187 418q0 77 -34 143l-2 2h-172v60h143
q-14 31 -26 60h-135v60h113q-36 107 -36 193q0 226 123.5 347t310.5 121q75 0 185.5 -14t110.5 -34v-161h-58q-5 61 -77 102z" />
    <glyph glyph-name="peseta" unicode="&#x20a7;" horiz-adv-x="2028" 
d="M409 1384v-662q3 -9 7 -17q41 -102 108 -153q57 -44 116 -44q10 0 19 1q68 8 127 75t87 177q22 87 22 179q0 24 -1 47q-7 116 -49.5 218.5t-108.5 144.5q-56 35 -112 35q-10 0 -21 -1h-194zM1496 908h-179v-685q0 -81 34 -119q28 -31 81 -37l-71 192l49 1
q55 -130 114 -174q57 -44 127 -44h7q92 0 151 52q59 53 59 136q0 102 -259 226q-101 52 -144 112t-43 145q0 121 73 194zM1039 910q-7 -101 -48 -194q-50 -114 -141 -177.5t-190 -63.5q-100 0 -191 64q-33 22 -60 51v-305q0 -235 102 -235h97v-50h-560v50h96q103 0 103 235
v864q0 235 -103 235h-96v50h618q92 -2 181 -62q91 -62 143 -177q50 -113 51 -237h10q216 0 216 355h50v-355h259q42 19 110 20h2q54 0 133.5 -13.5t79.5 -33.5v-159h-42q-4 66 -65.5 108t-133.5 42q-64 0 -102.5 -36.5t-38.5 -96.5q0 -108 235 -220q122 -55 167.5 -117.5
t45.5 -153.5q0 -140 -83 -231q-102 -84 -228 -86q-58 0 -105 11q-28 6 -56 6q-18 0 -36 -3q-28 -5 -59 -5q-124 0 -173.5 57t-57.5 176h-1v687h-129z" />
    <glyph glyph-name="Euro" unicode="&#x20ac;" horiz-adv-x="1098" 
d="M620 1304h56q145 -10 304 -92q40 -27 40 -48v-12q-14 -24 -36 -24q-173 104 -336 104h-8q-308 0 -500 -292q-40 -73 -76 -212q-15 -12 -28 -12q-36 6 -36 36q23 190 204 380q138 120 320 160zM196 828h744q56 0 56 -36q-10 -24 -24 -24q-234 0 -404 -4q-166 4 -412 4
q-16 17 -16 32v4q9 24 56 24zM36 592q38 0 48 -92q42 -146 148 -260q188 -172 412 -172q158 0 332 100h8q32 0 32 -32q-15 -69 -264 -128q-51 -8 -96 -8h-16q-357 0 -572 344q-64 148 -68 212q8 36 36 36zM176 536h784q22 0 36 -24v-4q0 -32 -32 -32h-72q-12 0 -12 -4l-20 4
h-140q-9 0 -16 -4q-4 0 -4 4l-28 -4h-188q-22 0 -56 4l-8 -4q-7 4 -16 4q-4 0 -12 -4l-8 4q-8 0 -8 -4l-28 4h-64q-9 0 -16 -4q-7 4 -16 4q-4 0 -12 -4l-8 4q-4 0 -4 -4q-88 0 -88 32v4q5 28 36 28z" />
    <glyph glyph-name="uni2116" unicode="&#x2116;" horiz-adv-x="2271" 
 />
    <glyph glyph-name="trademark" unicode="&#x2122;" horiz-adv-x="1497" 
 />
    <glyph glyph-name="partialdiff" unicode="&#x2202;" horiz-adv-x="1014" 
d="M232 537q0 -41 5 -79q14 -122 61.5 -230t118.5 -165q64 -53 128 -53q6 0 13 1q70 5 127.5 70.5t80.5 179.5q16 73 16 149q0 42 -5 85q-14 122 -62.5 231.5t-119.5 165.5q-65 50 -128 50h-11q-68 -5 -126 -69.5t-82 -178.5q-16 -84 -16 -157zM937 477q0 -132 -56.5 -251
t-159 -185t-214.5 -66t-214.5 66t-159 185t-56.5 251q0 131 58 251t161 185t211 65q109 0 212 -65q29 -18 54 -41q-84 235 -233.5 377t-326.5 155v55q306 0 515 -285t209 -697z" />
    <glyph glyph-name="Delta" unicode="&#x2206;" horiz-adv-x="1081" 
d="M514 1195l-406 -1072h801zM547 1434l526 -1434h-1067z" />
    <glyph glyph-name="product" unicode="&#x220f;" horiz-adv-x="1515" 
d="M511 1384q-102 0 -102 -235v-1281q0 -235 102 -235h97v-51h-560v51h96q103 0 103 235v1281q0 235 -103 235h-96v50h1419v-50h-97q-102 0 -102 -235v-1281q0 -235 102 -235h97v-50h-560v50h96q103 0 103 235v1281q0 235 -103 235h-492z" />
    <glyph glyph-name="summation" unicode="&#x2211;" horiz-adv-x="1206" 
d="M1059 548l-788 -914h635q130 0 189 182h49l-103 -232h-921v50q62 0 106 53l663 781l-663 859q-44 57 -106 57v50h921l103 -232h-49q-59 182 -189 182h-485z" />
    <glyph glyph-name="minus" unicode="&#x2212;" horiz-adv-x="1265" 
d="M108 710h1040q28 -14 28 -36q-12 -28 -36 -28h-1028q-23 0 -36 28v8q9 15 32 28z" />
    <glyph glyph-name="radical" unicode="&#x221a;" horiz-adv-x="1014" 
d="M181 0l-164 359l74 35l85 -185l728 1470h150v-60h-72z" />
    <glyph glyph-name="infinity" unicode="&#x221e;" horiz-adv-x="1014" 
d="M439 755q-15 103 -74 133q-46 22 -84 22q-12 0 -23 -2q-49 -10 -92.5 -44.5t-65.5 -84.5q-20 -46 -20 -90v-8q2 -48 27.5 -89t71.5 -58q29 -11 61 -11q16 0 33 3q47 10 90.5 43.5t75.5 185.5zM466 687q12 -96 94 -153q69 -48 123 -48q11 0 21 2q62 12 117.5 52t84.5 101
q26 54 26 108v11q-2 60 -35.5 108.5t-91.5 68.5q-37 13 -76 13q-22 0 -44 -4q-67 -9 -127 -62t-92 -197zM450 827q9 35 21 69q34 88 95 137t128 49t128 -48t95 -135t34 -182t-34 -182t-95 -135t-128 -48t-128 49t-95 136q-12 35 -21 70q-5 -21 -12 -41q-27 -73 -74 -113
t-99 -40t-100 41t-73.5 113.5t-25.5 149.5q0 76 25.5 149t73.5 114t100 41t99 -40t74 -112q7 -21 12 -42z" />
    <glyph glyph-name="integral" unicode="&#x222b;" horiz-adv-x="665" 
d="M-12 -281q-60 0 -60 29v159h36q1 -43 34.5 -64.5t63.5 -21.5h1q82 0 115 162q32 162 40 316l70 734l8 62q27 238 135 429.5t234 191.5q60 0 60 -29v-159h-36q-1 43 -35 64.5t-63 21.5q-71 0 -116 -155.5t-49 -363.5l-73 -767q-20 -231 -130.5 -420t-234.5 -189z" />
    <glyph glyph-name="approxequal" unicode="&#x2248;" horiz-adv-x="1014" 
d="M923 1053v-156q-63 -72 -122 -97.5t-116 -25.5q-60 0 -177.5 48.5t-176.5 48.5q-51 0 -107.5 -28t-129.5 -112v156q64 73 123 99t114 26q64 0 181.5 -49.5t172.5 -49.5q52 0 108.5 28t129.5 112zM923 705v-156q-63 -72 -122 -97.5t-116 -25.5q-60 0 -177.5 48.5
t-176.5 48.5q-51 0 -107.5 -28t-129.5 -112v156q64 73 123 99t114 26q64 0 181.5 -49.5t172.5 -49.5q52 0 108.5 28t129.5 112z" />
    <glyph glyph-name="lessequal" unicode="&#x2264;" horiz-adv-x="1014" 
d="M927 1074l-625 -359l625 -355v-167l-840 481v83l840 484v-167zM87 1v140h839l1 -1v-139h-840z" />
    <glyph glyph-name="greaterequal" unicode="&#x2265;" horiz-adv-x="1014" 
d="M87 1241l840 -484v-83l-840 -481v167l625 355l-625 359v167zM87 2v140h839l1 -1v-139h-840z" />
    <glyph glyph-name="uniF001" unicode="&#xf001;" horiz-adv-x="1073" 
 />
    <glyph glyph-name="uniF001" unicode="&#xfb01;" horiz-adv-x="1073" 
 />
    <glyph glyph-name="uniF002" unicode="&#xf002;" horiz-adv-x="1081" 
 />
    <glyph glyph-name="uniF002" unicode="&#xfb02;" horiz-adv-x="1081" 
 />
    </font>
</defs>
</svg>
