<svg aria-hidden="true" style="position:absolute;width:0;height:0;overflow:hidden" xmlns="http://www.w3.org/2000/svg"><defs><symbol id="icon-close" viewBox="0 0 32 32"><path fill="linen" style="fill:var(--color1, #faf0e6)" d="M30.757 1.217a1.709 1.709 0 0 1 0 2.434L3.691 30.426c-.679.672-1.781.672-2.461 0s-.679-1.762 0-2.434L28.296 1.217a1.754 1.754 0 0 1 2.461 0z"/><path fill="linen" style="fill:var(--color1, #faf0e6)" d="M1.243 1.574a1.754 1.754 0 0 1 2.461 0L30.77 28.349c.679.672.679 1.762 0 2.434s-1.781.672-2.461 0L1.243 4.008a1.709 1.709 0 0 1 0-2.434z"/></symbol><symbol id="icon-envelope" viewBox="0 0 32 32"><path fill="#fff" style="fill:var(--color2, #fff)" d="M29.575 3.692c1 0 1.81.81 1.81 1.81v20.815c0 1-.81 1.81-1.81 1.81V3.693zM.615 13.055a.905.905 0 1 1 1.81 0v15.071c-1 0-1.81-.81-1.81-1.81V13.055zM.615 5.502c0-1 .81-1.81 1.81-1.81v4.699c-1 0-1.81-.81-1.81-1.81V5.502z"/><path fill="#fff" style="fill:var(--color2, #fff)" d="M29.575 26.247H2.426v1.88h27.149v-1.88zM29.575 3.692H2.426v1.88h27.149v-1.88zM14.19 15.91l15.385-9.502v1.81L15.73 16.769a1.01 1.01 0 0 1-1.54-.859z"/><path fill="#fff" style="fill:var(--color2, #fff)" d="M16 15.91.615 6.408c0 1.125.583 2.17 1.54 2.761l12.305 7.6A1.01 1.01 0 0 0 16 15.91z"/></symbol><symbol id="icon-arrow" viewBox="0 0 32 32"><path fill="linen" style="fill:var(--color1, #faf0e6)" d="M15.908 1.641a1.05 1.05 0 0 1 1.051 1.051v25.936a1.05 1.05 0 1 1-2.102 0V2.692a1.05 1.05 0 0 1 1.051-1.051z"/><path fill="linen" style="fill:var(--color1, #faf0e6)" d="M6.487 19.208a1.05 1.05 0 0 1 1.487 0l8.426 8.426a1.05 1.05 0 1 1-1.487 1.487l-8.426-8.426a1.05 1.05 0 0 1 0-1.487zM25.513 19.208a1.05 1.05 0 0 1 0 1.487l-4.315 4.315a1.05 1.05 0 1 1-1.487-1.487l4.315-4.315a1.05 1.05 0 0 1 1.487 0z"/></symbol><symbol id="icon-phone" viewBox="0 0 32 32"><path fill="#fff" style="fill:var(--color2, #fff)" d="M4.601 6.628c0-1.471.584-2.882 1.625-3.922l1.082-1.082 5.413 5.413-.364.468a4.347 4.347 0 0 0-.219 5.029l.605.935a15.796 15.796 0 0 0 5.591 5.228l1.424.791a4.41 4.41 0 0 0 4.241-.163l.631-.378 5.413 5.413-1.082 1.082a5.547 5.547 0 0 1-3.922 1.625c-2.738 0-5.414-.81-7.692-2.329l-1.379-.919-2.371-1.814a21.067 21.067 0 0 1-3.935-3.935l-1.814-2.372-.919-1.379A13.863 13.863 0 0 1 4.6 6.627z"/><path fill="#fff" style="fill:var(--color2, #fff)" d="M11.368 2.977c1.495 1.495 2.549 2.864 1.353 4.06s-3.377.953-4.872-.541C6.354 5.001 6.112 2.82 7.308 1.624s2.565-.141 4.06 1.353zM28.961 20.029c1.495 1.495 2.278 3.135 1.083 4.331s-3.377.953-4.872-.541-1.737-3.676-.541-4.872c1.196-1.196 2.836-.412 4.331 1.083z"/></symbol><symbol id="icon-card" viewBox="0 0 32 32"><path fill="#fff" style="fill:var(--color2, #fff)" opacity=".75" d="M7.438 5.333h22.855c.943 0 1.707.764 1.707 1.707v12.348c0 .943-.764 1.707-1.707 1.707H7.438a1.707 1.707 0 0 1-1.707-1.707V7.04c0-.943.764-1.707 1.707-1.707z"/><path fill="#333" style="fill:var(--color3, #333)" opacity=".75" d="M5.731 8.677H32v2.388H5.731V8.677zM25.791 17.512a1.195 1.195 0 1 1-2.39-.001 1.195 1.195 0 0 1 2.39.001z"/><path fill="#333" style="fill:var(--color3, #333)" opacity=".75" d="M27.701 17.512a1.195 1.195 0 1 1-2.39-.001 1.195 1.195 0 0 1 2.39.001z"/><path fill="#7cd708" style="fill:var(--color4, #7cd708)" opacity=".75" d="M12.896 19.9A6.448 6.448 0 1 1 0 19.9a6.448 6.448 0 0 1 12.896 0z"/><path fill="#fff" style="fill:var(--color2, #fff)" opacity=".75" d="M2.248 20.487a.476.476 0 1 1 .675-.675l3.039 3.04-.072.072a.854.854 0 0 1-1.207 0l-2.436-2.436zM5.963 22.851l-.675-.675 4.728-4.728a.476.476 0 1 1 .675.675l-4.728 4.728z"/></symbol><symbol id="icon-tools" viewBox="0 0 32 32"><path fill="#fff" style="fill:var(--color2, #fff)" d="M3.891 21.183 12.72 6.086a.432.432 0 0 1 .586-.157l.683.389a.421.421 0 0 1 .155.58L5.315 21.995l-1.424-.812z"/><path fill="#fff" style="fill:var(--color2, #fff)" d="M5.014 20.886c1.18.672 1.492 2.319.697 3.678s-2.395 1.915-3.575 1.243-1.492-2.319-.697-3.678 2.395-1.915 3.575-1.243zm-2.302 3.937c.708.403 1.668.07 2.145-.746s.29-1.803-.418-2.207c-.708-.403-1.668-.07-2.145.746s-.289 1.803.418 2.207zM11.892 21.183 3.063 6.086a.432.432 0 0 0-.586-.157l-.683.389a.421.421 0 0 0-.155.58l8.829 15.097 1.424-.812z"/><path fill="#fff" style="fill:var(--color2, #fff)" d="M10.769 20.886c-1.18.672-1.492 2.319-.697 3.678s2.395 1.915 3.575 1.243c1.18-.672 1.492-2.319.697-3.678s-2.395-1.915-3.575-1.243zm2.302 3.937c-.708.403-1.668.07-2.145-.746s-.289-1.803.418-2.207 1.668-.07 2.145.746c.477.815.29 1.803-.418 2.207z"/><path fill="#333" style="fill:var(--color3, #333)" d="M8.222 15.865c0 .224-.184.406-.411.406s-.411-.182-.411-.406c0-.224.184-.406.411-.406s.411.182.411.406z"/><path fill="#fff" style="fill:var(--color2, #fff)" d="m17.188 21.391 9.858-9.732a.432.432 0 0 1 .607 0l.555.548a.42.42 0 0 1 0 .6l-9.858 9.732a.432.432 0 0 1-.607 0l-.555-.548a.419.419 0 0 1 0-.599z"/><path fill="#fff" style="fill:var(--color2, #fff)" d="M24.164 9.363a.42.42 0 0 1 0-.6l.655-.647a.432.432 0 0 1 .47-.091l1.659.687a.436.436 0 0 1 .138.091l4.611 4.552a.42.42 0 0 1 0 .6l-1.137 1.122a.432.432 0 0 1-.607 0l-5.788-5.714z"/></symbol><symbol id="icon-delivery" viewBox="0 0 32 32"><path fill="none" stroke="#fff" style="stroke:var(--color2, #fff)" stroke-width=".853" d="M.427 7.467h21.856v13.641H9.038a3.192 3.192 0 0 0-5.689 0H.427V7.467z"/><path fill="#fff" style="fill:var(--color2, #fff)" d="M8.258 22.569c0 1.144-.924 2.071-2.064 2.071s-2.065-.927-2.065-2.071.924-2.071 2.065-2.071c1.14 0 2.064.927 2.064 2.071zm-3.097 0a1.033 1.033 0 1 0 2.064 0 1.033 1.033 0 1 0-2.064 0zM29.936 22.569c0 1.144-.924 2.071-2.064 2.071s-2.064-.927-2.064-2.071c0-1.144.924-2.071 2.064-2.071s2.064.927 2.064 2.071zm-3.097 0a1.033 1.033 0 1 0 2.064 0 1.033 1.033 0 1 0-2.064 0z"/><path fill="none" stroke="#fff" style="stroke:var(--color2, #fff)" stroke-width=".853" d="M24.169 9.537h3.474l3.931 5.914v5.656h-.858a3.192 3.192 0 0 0-5.689 0h-.858V9.537z"/><path fill="#fff" style="fill:var(--color2, #fff)" d="M25.6 11.733c0-.236.191-.427.427-.427h.937c.147 0 .284.076.362.201l2.133 3.413a.427.427 0 0 1-.362.653h-3.07a.427.427 0 0 1-.427-.427v-3.413zM8.45 14.075a2.145 2.145 0 1 1 3.034-3.034l3.468 3.468-3.034 3.034-3.468-3.468z"/><path fill="#fff" style="fill:var(--color2, #fff)" d="M12.352 11.041a2.145 2.145 0 1 1 3.034 3.034l-3.468 3.468-3.034-3.034 3.468-3.468z"/></symbol><symbol id="icon-facebook" viewBox="0 0 32 32"><path d="M21.33 5.313h2.921V.225C23.747.156 22.014 0 19.995 0c-4.212 0-7.097 2.649-7.097 7.519V12H8.25v5.688h4.648V32h5.699V17.689h4.46l.708-5.688h-5.169V8.082c.001-1.644.444-2.769 2.735-2.769z"/></symbol><symbol id="icon-instagram" viewBox="0 0 32 32"><path d="M31.969 9.408c-.075-1.7-.35-2.869-.744-3.882a7.806 7.806 0 0 0-1.851-2.838A7.867 7.867 0 0 0 26.542.844C25.523.45 24.36.175 22.66.1 20.947.019 20.403 0 16.059 0s-4.888.019-6.595.094c-1.7.075-2.869.35-3.882.744a7.803 7.803 0 0 0-2.838 1.85A7.867 7.867 0 0 0 .9 5.52C.506 6.539.231 7.702.156 9.402c-.081 1.713-.1 2.257-.1 6.601s.019 4.888.094 6.595c.075 1.7.35 2.869.744 3.882a7.895 7.895 0 0 0 1.85 2.838 7.867 7.867 0 0 0 2.832 1.844c1.019.394 2.182.669 3.882.744 1.706.075 2.25.094 6.595.094s4.888-.019 6.595-.094c1.7-.075 2.869-.35 3.882-.744a8.184 8.184 0 0 0 4.682-4.682c.394-1.019.669-2.182.744-3.882.075-1.707.094-2.251.094-6.595s-.006-4.888-.081-6.595zm-2.882 13.065c-.069 1.563-.331 2.407-.55 2.969a5.31 5.31 0 0 1-3.038 3.038c-.563.219-1.413.481-2.969.55-1.688.075-2.194.094-6.464.094s-4.782-.019-6.464-.094c-1.563-.069-2.407-.331-2.969-.55a4.926 4.926 0 0 1-1.838-1.194 4.974 4.974 0 0 1-1.194-1.838c-.219-.563-.481-1.413-.55-2.969-.075-1.688-.094-2.194-.094-6.464s.019-4.782.094-6.464c.069-1.563.331-2.407.55-2.969a4.868 4.868 0 0 1 1.2-1.838A4.974 4.974 0 0 1 6.639 3.55c.563-.219 1.413-.481 2.969-.55 1.688-.075 2.194-.094 6.464-.094 4.276 0 4.782.019 6.464.094 1.563.069 2.407.331 2.969.55a4.914 4.914 0 0 1 1.838 1.194 4.974 4.974 0 0 1 1.194 1.838c.219.563.481 1.413.55 2.969.075 1.688.094 2.194.094 6.464s-.019 4.77-.094 6.458z"/><path d="M16.059 7.783c-4.538 0-8.22 3.682-8.22 8.22s3.682 8.22 8.22 8.22c4.539 0 8.22-3.682 8.22-8.22s-3.682-8.22-8.22-8.22zm0 13.552a5.333 5.333 0 0 1 0-10.664 5.333 5.333 0 0 1 0 10.664zM26.524 7.458a1.919 1.919 0 1 1-3.838 0 1.919 1.919 0 0 1 3.838 0z"/></symbol></defs></svg>