<svg aria-hidden="true" style="position: absolute; width: 0; height: 0; overflow: hidden;" version="1.1" xmlns="http://www.w3.org/2000/svg" xmlns:xlink="http://www.w3.org/1999/xlink">
<defs>
<symbol id="icon-close" viewBox="0 0 32 32">
<path fill="#faf0e6" style="fill: var(--color1, #faf0e6)" d="M30.757 1.217c0.679 0.672 0.679 1.762 0 2.434l-27.066 26.775c-0.679 0.672-1.781 0.672-2.461 0s-0.679-1.762 0-2.434l27.066-26.775c0.679-0.672 1.781-0.672 2.461 0z"></path>
<path fill="#faf0e6" style="fill: var(--color1, #faf0e6)" d="M1.243 1.574c0.679-0.672 1.781-0.672 2.461 0l27.066 26.775c0.679 0.672 0.679 1.762 0 2.434s-1.781 0.672-2.461 0l-27.066-26.775c-0.679-0.672-0.679-1.762 0-2.434z"></path>
</symbol>
<symbol id="icon-envelope" viewBox="0 0 32 32">
<path fill="#fff" style="fill: var(--color2, #fff)" d="M29.575 3.692c1 0 1.81 0.81 1.81 1.81v20.815c0 1-0.81 1.81-1.81 1.81v-24.434z"></path>
<path fill="#fff" style="fill: var(--color2, #fff)" d="M0.615 13.055c0-0.5 0.405-0.905 0.905-0.905s0.905 0.405 0.905 0.905v15.071c-1 0-1.81-0.81-1.81-1.81v-13.261z"></path>
<path fill="#fff" style="fill: var(--color2, #fff)" d="M0.615 5.502c0-1 0.81-1.81 1.81-1.81v4.699c-1 0-1.81-0.81-1.81-1.81v-1.079z"></path>
<path fill="#fff" style="fill: var(--color2, #fff)" d="M29.575 26.247h-27.149v1.88h27.149v-1.88z"></path>
<path fill="#fff" style="fill: var(--color2, #fff)" d="M29.575 3.692h-27.149v1.88h27.149v-1.88z"></path>
<path fill="#fff" style="fill: var(--color2, #fff)" d="M14.19 15.91l15.385-9.502v1.81l-13.845 8.551c-0.672 0.415-1.54-0.068-1.54-0.859z"></path>
<path fill="#fff" style="fill: var(--color2, #fff)" d="M16 15.91l-15.385-9.502c0 1.125 0.583 2.17 1.54 2.761l12.305 7.6c0.672 0.415 1.54-0.068 1.54-0.859z"></path>
</symbol>
<symbol id="icon-arrow" viewBox="0 0 32 32">
<path fill="#faf0e6" style="fill: var(--color1, #faf0e6)" d="M15.908 1.641c0.581 0 1.051 0.471 1.051 1.051v25.936c0 0.581-0.471 1.051-1.051 1.051s-1.051-0.471-1.051-1.051v-25.936c0-0.581 0.471-1.051 1.051-1.051z"></path>
<path fill="#faf0e6" style="fill: var(--color1, #faf0e6)" d="M6.487 19.208c0.411-0.411 1.076-0.411 1.487 0l8.426 8.426c0.411 0.411 0.411 1.076 0 1.487s-1.076 0.411-1.487 0l-8.426-8.426c-0.411-0.411-0.411-1.076 0-1.487z"></path>
<path fill="#faf0e6" style="fill: var(--color1, #faf0e6)" d="M25.513 19.208c0.411 0.411 0.411 1.076 0 1.487l-4.315 4.315c-0.411 0.411-1.076 0.411-1.487 0s-0.411-1.076 0-1.487l4.315-4.315c0.411-0.411 1.076-0.411 1.487 0z"></path>
</symbol>
<symbol id="icon-phone" viewBox="0 0 32 32">
<path fill="#fff" style="fill: var(--color2, #fff)" d="M4.601 6.628c0-1.471 0.584-2.882 1.625-3.922l1.082-1.082 5.413 5.413-0.364 0.468c-0.948 1.219-1.178 2.849-0.605 4.282 0.104 0.261 0.234 0.511 0.386 0.747l0.605 0.935c1.407 2.175 3.327 3.97 5.591 5.228l1.424 0.791c1.349 0.674 2.948 0.613 4.241-0.163l0.631-0.378 5.413 5.413-1.082 1.082c-1.040 1.040-2.451 1.625-3.922 1.625-2.738 0-5.414-0.81-7.692-2.329l-1.379-0.919-2.371-1.814c-1.48-1.132-2.803-2.455-3.935-3.935l-1.814-2.372-0.919-1.379c-1.519-2.278-2.329-4.954-2.329-7.692z"></path>
<path fill="#fff" style="fill: var(--color2, #fff)" d="M11.368 2.977c1.495 1.495 2.549 2.864 1.353 4.060s-3.377 0.953-4.872-0.541c-1.495-1.495-1.737-3.676-0.541-4.872s2.565-0.141 4.060 1.353z"></path>
<path fill="#fff" style="fill: var(--color2, #fff)" d="M28.961 20.029c1.495 1.495 2.278 3.135 1.083 4.331s-3.377 0.953-4.872-0.541-1.737-3.676-0.541-4.872c1.196-1.196 2.836-0.412 4.331 1.083z"></path>
</symbol>
<symbol id="icon-card" viewBox="0 0 32 32">
<path fill="#fff" style="fill: var(--color2, #fff)" opacity="0.75" d="M7.438 5.333h22.855c0.943 0 1.707 0.764 1.707 1.707v12.348c0 0.943-0.764 1.707-1.707 1.707h-22.855c-0.943 0-1.707-0.764-1.707-1.707v-12.348c0-0.943 0.764-1.707 1.707-1.707z"></path>
<path fill="#333" style="fill: var(--color3, #333)" opacity="0.75" d="M5.731 8.677h26.269v2.388h-26.269v-2.388z"></path>
<path fill="#333" style="fill: var(--color3, #333)" opacity="0.75" d="M25.791 17.512c0 0.659-0.535 1.194-1.194 1.194s-1.194-0.535-1.194-1.194c0-0.659 0.535-1.194 1.194-1.194s1.194 0.535 1.194 1.194z"></path>
<path fill="#333" style="fill: var(--color3, #333)" opacity="0.75" d="M27.701 17.512c0 0.659-0.535 1.194-1.194 1.194s-1.194-0.535-1.194-1.194c0-0.659 0.535-1.194 1.194-1.194s1.194 0.535 1.194 1.194z"></path>
<path fill="#7cd708" style="fill: var(--color4, #7cd708)" opacity="0.75" d="M12.896 19.9c0 3.561-2.887 6.448-6.448 6.448s-6.448-2.887-6.448-6.448c0-3.561 2.887-6.448 6.448-6.448s6.448 2.887 6.448 6.448z"></path>
<path fill="#fff" style="fill: var(--color2, #fff)" opacity="0.75" d="M2.248 20.487c-0.187-0.186-0.187-0.489 0-0.675s0.489-0.187 0.675 0l3.039 3.040-0.072 0.072c-0.333 0.333-0.874 0.333-1.207 0l-2.436-2.436z"></path>
<path fill="#fff" style="fill: var(--color2, #fff)" opacity="0.75" d="M5.963 22.851l-0.675-0.675 4.728-4.728c0.187-0.187 0.489-0.187 0.675 0s0.187 0.489 0 0.675l-4.728 4.728z"></path>
</symbol>
<symbol id="icon-tools" viewBox="0 0 32 32">
<path fill="#fff" style="fill: var(--color2, #fff)" d="M3.891 21.183l8.829-15.097c0.119-0.203 0.381-0.274 0.586-0.157l0.683 0.389c0.205 0.117 0.274 0.376 0.155 0.58l-8.829 15.097-1.424-0.812z"></path>
<path fill="#fff" style="fill: var(--color2, #fff)" d="M5.014 20.886c1.18 0.672 1.492 2.319 0.697 3.678s-2.395 1.915-3.575 1.243-1.492-2.319-0.697-3.678c0.795-1.359 2.395-1.915 3.575-1.243zM2.712 24.823c0.708 0.403 1.668 0.070 2.145-0.746s0.29-1.803-0.418-2.207c-0.708-0.403-1.668-0.070-2.145 0.746s-0.289 1.803 0.418 2.207z"></path>
<path fill="#fff" style="fill: var(--color2, #fff)" d="M11.892 21.183l-8.829-15.097c-0.119-0.203-0.381-0.274-0.586-0.157l-0.683 0.389c-0.205 0.117-0.274 0.376-0.155 0.58l8.829 15.097 1.424-0.812z"></path>
<path fill="#fff" style="fill: var(--color2, #fff)" d="M10.769 20.886c-1.18 0.672-1.492 2.319-0.697 3.678s2.395 1.915 3.575 1.243c1.18-0.672 1.492-2.319 0.697-3.678s-2.395-1.915-3.575-1.243zM13.071 24.823c-0.708 0.403-1.668 0.070-2.145-0.746s-0.289-1.803 0.418-2.207 1.668-0.070 2.145 0.746c0.477 0.815 0.29 1.803-0.418 2.207z"></path>
<path fill="#333" style="fill: var(--color3, #333)" d="M8.222 15.865c0 0.224-0.184 0.406-0.411 0.406s-0.411-0.182-0.411-0.406c0-0.224 0.184-0.406 0.411-0.406s0.411 0.182 0.411 0.406z"></path>
<path fill="#fff" style="fill: var(--color2, #fff)" d="M17.188 21.391l9.858-9.732c0.168-0.166 0.44-0.166 0.607 0l0.555 0.548c0.168 0.166 0.168 0.434 0 0.6l-9.858 9.732c-0.168 0.166-0.44 0.166-0.607 0l-0.555-0.548c-0.168-0.166-0.168-0.434 0-0.599z"></path>
<path fill="#fff" style="fill: var(--color2, #fff)" d="M24.164 9.363c-0.168-0.166-0.168-0.434 0-0.6l0.655-0.647c0.123-0.122 0.309-0.158 0.47-0.091l1.659 0.687c0.051 0.021 0.098 0.052 0.138 0.091l4.611 4.552c0.168 0.166 0.168 0.434 0 0.6l-1.137 1.122c-0.168 0.166-0.44 0.166-0.607 0l-5.788-5.714z"></path>
</symbol>
<symbol id="icon-delivery" viewBox="0 0 32 32">
<path fill="none" stroke="#fff" style="stroke: var(--color2, #fff)" stroke-linejoin="miter" stroke-linecap="butt" stroke-miterlimit="4" stroke-width="0.8533" d="M0.427 7.467h21.856v13.641h-13.245c-0.309-0.606-0.804-1.098-1.413-1.403-0.901-0.452-1.962-0.452-2.863 0-0.609 0.305-1.104 0.797-1.413 1.403h-2.922v-13.641z"></path>
<path fill="#fff" style="fill: var(--color2, #fff)" d="M8.258 22.569c0 1.144-0.924 2.071-2.064 2.071s-2.065-0.927-2.065-2.071 0.924-2.071 2.065-2.071c1.14 0 2.064 0.927 2.064 2.071zM5.161 22.569c0 0.572 0.462 1.035 1.032 1.035s1.032-0.464 1.032-1.035c0-0.572-0.462-1.035-1.032-1.035s-1.032 0.463-1.032 1.035z"></path>
<path fill="#fff" style="fill: var(--color2, #fff)" d="M29.936 22.569c0 1.144-0.924 2.071-2.064 2.071s-2.064-0.927-2.064-2.071c0-1.144 0.924-2.071 2.064-2.071s2.064 0.927 2.064 2.071zM26.839 22.569c0 0.572 0.462 1.035 1.032 1.035s1.032-0.464 1.032-1.035c0-0.572-0.462-1.035-1.032-1.035s-1.032 0.463-1.032 1.035z"></path>
<path fill="none" stroke="#fff" style="stroke: var(--color2, #fff)" stroke-linejoin="miter" stroke-linecap="butt" stroke-miterlimit="4" stroke-width="0.8533" d="M24.169 9.537h3.474l3.931 5.914v5.656h-0.858c-0.309-0.606-0.804-1.098-1.413-1.403-0.901-0.452-1.962-0.452-2.863 0-0.609 0.305-1.104 0.797-1.413 1.403h-0.858v-11.57z"></path>
<path fill="#fff" style="fill: var(--color2, #fff)" d="M25.6 11.733c0-0.236 0.191-0.427 0.427-0.427h0.937c0.147 0 0.284 0.076 0.362 0.201l2.133 3.413c0.178 0.284-0.027 0.653-0.362 0.653h-3.070c-0.236 0-0.427-0.191-0.427-0.427v-3.413z"></path>
<path fill="#fff" style="fill: var(--color2, #fff)" d="M8.45 14.075c-0.838-0.838-0.838-2.196 0-3.034s2.196-0.838 3.034 0l3.468 3.468-3.034 3.034-3.468-3.468z"></path>
<path fill="#fff" style="fill: var(--color2, #fff)" d="M12.352 11.041c0.838-0.838 2.196-0.838 3.034 0s0.838 2.196 0 3.034l-3.468 3.468-3.034-3.034 3.468-3.468z"></path>
</symbol>
<symbol id="icon-facebook" viewBox="0 0 32 32">
<path fill="#afb1b8" style="fill: var(--color5, #afb1b8)" d="M21.33 5.313h2.921v-5.088c-0.504-0.069-2.237-0.225-4.256-0.225-4.212 0-7.097 2.649-7.097 7.519v4.481h-4.648v5.688h4.648v14.312h5.699v-14.311h4.46l0.708-5.688h-5.169v-3.919c0.001-1.644 0.444-2.769 2.735-2.769z"></path>
</symbol>
<symbol id="icon-instagram" viewBox="0 0 32 32">
<path fill="#afb1b8" style="fill: var(--color5, #afb1b8)" d="M31.969 9.408c-0.075-1.7-0.35-2.869-0.744-3.882-0.406-1.075-1.032-2.038-1.851-2.838-0.8-0.813-1.769-1.444-2.832-1.844-1.019-0.394-2.182-0.669-3.882-0.744-1.713-0.081-2.257-0.1-6.601-0.1s-4.888 0.019-6.595 0.094c-1.7 0.075-2.869 0.35-3.882 0.744-1.075 0.406-2.038 1.031-2.838 1.85-0.813 0.8-1.444 1.769-1.844 2.832-0.394 1.019-0.669 2.182-0.744 3.882-0.081 1.713-0.1 2.257-0.1 6.601s0.019 4.888 0.094 6.595c0.075 1.7 0.35 2.869 0.744 3.882 0.406 1.075 1.038 2.038 1.85 2.838 0.8 0.813 1.769 1.444 2.832 1.844 1.019 0.394 2.182 0.669 3.882 0.744 1.706 0.075 2.25 0.094 6.595 0.094s4.888-0.019 6.595-0.094c1.7-0.075 2.869-0.35 3.882-0.744 2.151-0.832 3.851-2.532 4.682-4.682 0.394-1.019 0.669-2.182 0.744-3.882 0.075-1.707 0.094-2.251 0.094-6.595s-0.006-4.888-0.081-6.595zM29.087 22.473c-0.069 1.563-0.331 2.407-0.55 2.969-0.538 1.394-1.644 2.5-3.038 3.038-0.563 0.219-1.413 0.481-2.969 0.55-1.688 0.075-2.194 0.094-6.464 0.094s-4.782-0.019-6.464-0.094c-1.563-0.069-2.407-0.331-2.969-0.55-0.694-0.256-1.325-0.663-1.838-1.194-0.531-0.519-0.938-1.144-1.194-1.838-0.219-0.563-0.481-1.413-0.55-2.969-0.075-1.688-0.094-2.194-0.094-6.464s0.019-4.782 0.094-6.464c0.069-1.563 0.331-2.407 0.55-2.969 0.256-0.694 0.663-1.325 1.2-1.838 0.519-0.531 1.144-0.938 1.838-1.194 0.563-0.219 1.413-0.481 2.969-0.55 1.688-0.075 2.194-0.094 6.464-0.094 4.276 0 4.782 0.019 6.464 0.094 1.563 0.069 2.407 0.331 2.969 0.55 0.694 0.256 1.325 0.662 1.838 1.194 0.531 0.519 0.938 1.144 1.194 1.838 0.219 0.563 0.481 1.413 0.55 2.969 0.075 1.688 0.094 2.194 0.094 6.464s-0.019 4.77-0.094 6.458z"></path>
<path fill="#afb1b8" style="fill: var(--color5, #afb1b8)" d="M16.059 7.783c-4.538 0-8.22 3.682-8.22 8.22s3.682 8.22 8.22 8.22c4.539 0 8.22-3.682 8.22-8.22s-3.682-8.22-8.22-8.22zM16.059 21.335c-2.944 0-5.332-2.388-5.332-5.332s2.388-5.332 5.332-5.332c2.944 0 5.332 2.388 5.332 5.332s-2.388 5.332-5.332 5.332z"></path>
<path fill="#afb1b8" style="fill: var(--color5, #afb1b8)" d="M26.524 7.458c0 1.060-0.859 1.919-1.919 1.919s-1.919-0.859-1.919-1.919c0-1.060 0.859-1.919 1.919-1.919s1.919 0.859 1.919 1.919z"></path>
</symbol>
</defs>
</svg>
